<?xml version="1.0" encoding="utf-8"?>
<!-- Generator: Adobe Illustrator 16.0.2, SVG Export Plug-In . SVG Version: 6.00 Build 0)  -->
<!DOCTYPE svg PUBLIC "-//W3C//DTD SVG 1.1//EN" "http://www.w3.org/Graphics/SVG/1.1/DTD/svg11.dtd">
<svg version="1.1" id="Layer_1" xmlns="http://www.w3.org/2000/svg" xmlns:xlink="http://www.w3.org/1999/xlink" x="0px" y="0px"
	 width="150px" height="150px" viewBox="-63 -63 150 150" enable-background="new -63 -63 150 150" xml:space="preserve">
<path fill="#3B1F53" d="M4.5,49.5h15v-30h30v-15h-30v-30h-15v30h-30v15h30V49.5z M12,87c-10.375,0-20.123-1.971-29.249-5.907
	s-17.062-9.279-23.815-16.028c-6.75-6.754-12.092-14.689-16.029-23.815C-61.03,32.127-63,22.375-63,12s1.97-20.127,5.907-29.249
	c3.937-9.126,9.279-17.062,16.029-23.815c6.753-6.75,14.689-12.092,23.815-16.029C-8.123-61.03,1.625-63,12-63
	c10.371,0,20.127,1.97,29.253,5.907c9.126,3.937,17.058,9.279,23.812,16.029c6.745,6.753,12.092,14.689,16.032,23.815
	C85.029-8.127,87,1.625,87,12s-1.971,20.127-5.903,29.249c-3.94,9.126-9.287,17.062-16.032,23.815
	c-6.754,6.749-14.686,12.092-23.812,16.028S22.371,87,12,87z M12,72c16.75,0,30.938-5.812,42.561-17.439
	C66.185,42.938,72,28.75,72,12c0-16.75-5.815-30.938-17.439-42.561C42.938-42.188,28.75-48,12-48
	c-16.75,0-30.938,5.812-42.561,17.439C-42.188-18.938-48-4.75-48,12c0,16.75,5.812,30.938,17.439,42.561
	C-18.938,66.188-4.75,72,12,72z"/>
</svg>
