<svg width="150" height="150" viewBox="0 0 150 150" fill="none" xmlns="http://www.w3.org/2000/svg">
<path d="M75 43.75C81.9375 43.75 87.5 38.125 87.5 31.25C87.5 28.875 86.875 26.6875 85.6875 24.8125L75 6.25L64.3125 24.8125C63.125 26.6875 62.5 28.875 62.5 31.25C62.5 38.125 68.125 43.75 75 43.75ZM112.5 62.5H81.25V50H68.75V62.5H37.5C27.125 62.5 18.75 70.875 18.75 81.25V137.5C18.75 140.938 21.5625 143.75 25 143.75H125C128.438 143.75 131.25 140.938 131.25 137.5V81.25C131.25 70.875 122.875 62.5 112.5 62.5ZM118.75 131.25H31.25V112.5C36.875 112.438 42.25 110.188 46.25 106.188L53.0625 99.5L59.75 106.188C67.9375 114.375 82.1875 114.312 90.3125 106.188L97.0625 99.5L103.75 106.188C107.75 110.188 113.125 112.438 118.75 112.5V131.25ZM118.75 103.125C115.562 103.062 112.562 101.875 110.312 99.5625L97 86.25L83.625 99.5625C79 104.188 70.9375 104.188 66.3125 99.5625L53 86.25L39.625 99.5625C37.4375 101.812 34.4375 103.062 31.25 103.125V81.25C31.25 77.8125 34.0625 75 37.5 75H112.5C115.938 75 118.75 77.8125 118.75 81.25V103.125Z" fill="black"/>
</svg>
