<svg width="150" height="150" viewBox="0 0 150 150" fill="none" xmlns="http://www.w3.org/2000/svg">
<path d="M90.625 75C90.625 83.625 83.625 90.625 75 90.625C66.375 90.625 59.375 83.625 59.375 75C59.375 66.375 66.375 59.375 75 59.375C83.625 59.375 90.625 66.375 90.625 75ZM137.5 75C137.5 109.5 109.5 137.5 75 137.5C40.5 137.5 12.5 109.5 12.5 75C12.5 40.5 40.5 12.5 75 12.5C109.5 12.5 137.5 40.5 137.5 75ZM125 75H100C100 61.1875 88.8125 50 75 50C61.1875 50 50 61.1875 50 75H25C25 102.562 47.4375 125 75 125C102.562 125 125 102.562 125 75Z" fill="black"/>
</svg>
