<svg width="150" height="150" viewBox="0 0 150 150" fill="none" xmlns="http://www.w3.org/2000/svg">
<path d="M118.75 18.75H31.25C24.375 18.75 18.75 24.375 18.75 31.25V118.75C18.75 125.625 24.375 131.25 31.25 131.25H118.75C125.625 131.25 131.25 125.625 131.25 118.75V31.25C131.25 24.375 125.625 18.75 118.75 18.75ZM118.75 118.75H31.25V31.25H118.75V118.75Z" fill="black"/>
<path d="M46.875 112.5C52.0527 112.5 56.25 108.303 56.25 103.125C56.25 97.9473 52.0527 93.75 46.875 93.75C41.6973 93.75 37.5 97.9473 37.5 103.125C37.5 108.303 41.6973 112.5 46.875 112.5Z" fill="black"/>
<path d="M46.875 56.25C52.0527 56.25 56.25 52.0527 56.25 46.875C56.25 41.6973 52.0527 37.5 46.875 37.5C41.6973 37.5 37.5 41.6973 37.5 46.875C37.5 52.0527 41.6973 56.25 46.875 56.25Z" fill="black"/>
<path d="M75 84.375C80.1777 84.375 84.375 80.1777 84.375 75C84.375 69.8223 80.1777 65.625 75 65.625C69.8223 65.625 65.625 69.8223 65.625 75C65.625 80.1777 69.8223 84.375 75 84.375Z" fill="black"/>
<path d="M103.125 112.5C108.303 112.5 112.5 108.303 112.5 103.125C112.5 97.9473 108.303 93.75 103.125 93.75C97.9473 93.75 93.75 97.9473 93.75 103.125C93.75 108.303 97.9473 112.5 103.125 112.5Z" fill="black"/>
<path d="M103.125 56.25C108.303 56.25 112.5 52.0527 112.5 46.875C112.5 41.6973 108.303 37.5 103.125 37.5C97.9473 37.5 93.75 41.6973 93.75 46.875C93.75 52.0527 97.9473 56.25 103.125 56.25Z" fill="black"/>
</svg>
