<?xml version="1.0" encoding="utf-8"?>
<!-- Generator: Adobe Illustrator 16.0.2, SVG Export Plug-In . SVG Version: 6.00 Build 0)  -->
<!DOCTYPE svg PUBLIC "-//W3C//DTD SVG 1.1//EN" "http://www.w3.org/Graphics/SVG/1.1/DTD/svg11.dtd">
<svg version="1.1" id="Layer_1" xmlns="http://www.w3.org/2000/svg" xmlns:xlink="http://www.w3.org/1999/xlink" x="0px" y="0px"
	 width="150px" height="150px" viewBox="0 0 150 150" enable-background="new 0 0 150 150" xml:space="preserve">
<path fill="#EBE4E9" d="M75,0C33.579,0,0,33.579,0,75c0,41.421,33.579,75,75,75c41.421,0,75-33.578,75-75S116.421,0,75,0z
	 M99.336,111.547c0,0-3.143-3.783-5.772-7.117c6.369-1.496,12.003-5.201,15.902-10.453c-3.171,2.105-6.569,3.848-10.132,5.194
	c-4.111,1.763-8.416,3.032-12.825,3.783c-7.543,1.422-15.286,1.422-22.829,0c-4.383-0.864-8.676-2.13-12.826-3.783
	c-2.208-0.821-4.352-1.807-6.413-2.95l-0.833-0.448h-0.321c-1.603-0.898-2.5-1.539-2.5-1.539c3.763,5.149,9.207,8.825,15.39,10.388
	l-5.835,7.311c-10.612,0.276-20.673-4.718-26.869-13.338c0.325-17.852,4.711-35.396,12.826-51.301
	c7.074-5.562,15.701-8.79,24.688-9.234l0.898,1.091c-8.465,2.083-16.368,6-23.149,11.479c0,0,1.924-1.026,5.195-2.565
	c6.319-2.869,13.048-4.729,19.943-5.515h1.539c5.899-0.709,11.863-0.709,17.763,0c9.289,1.054,18.285,3.906,26.483,8.4
	c-6.44-5.226-13.915-9.028-21.931-11.157l1.218-1.41c9.007,0.448,17.653,3.674,24.754,9.233
	c8.099,15.911,12.483,33.451,12.825,51.301C120.109,107.364,109.932,112.093,99.336,111.547z M99.527,80.254
	c0,5.383-4.02,9.747-8.978,9.747s-8.978-4.364-8.978-9.747c0-5.384,4.02-9.749,8.978-9.749S99.527,74.87,99.527,80.254z
	 M67.465,80.061c0.008,0.352-0.003,0.703-0.033,1.053c-0.459,5.4-5.208,9.404-10.607,8.945c-5.399-0.459-9.404-5.209-8.945-10.607
	c0.459-5.399,5.208-9.404,10.608-8.945C63.583,70.714,67.574,74.962,67.465,80.061z"/>
</svg>
