<?xml version="1.0" encoding="utf-8"?>
<!-- Generator: Adobe Illustrator 16.0.2, SVG Export Plug-In . SVG Version: 6.00 Build 0)  -->
<!DOCTYPE svg PUBLIC "-//W3C//DTD SVG 1.1//EN" "http://www.w3.org/Graphics/SVG/1.1/DTD/svg11.dtd">
<svg version="1.1" id="Layer_1" xmlns="http://www.w3.org/2000/svg" xmlns:xlink="http://www.w3.org/1999/xlink" x="0px" y="0px"
	 width="150px" height="150px" viewBox="0 0 150 150" enable-background="new 0 0 150 150" xml:space="preserve">
<path fill="#EBE4E9" d="M75,0c41.395,0,75,33.606,75,75c0,41.395-33.605,75-75,75c-41.394,0-75-33.605-75-75C0,33.606,33.606,0,75,0
	z M75,28.125c-12.73,0-14.327,0.054-19.327,0.282c-4.989,0.228-8.396,1.02-11.378,2.179c-3.083,1.198-5.697,2.801-8.303,5.407
	s-4.208,5.22-5.407,8.302c-1.159,2.982-1.951,6.389-2.179,11.378c-0.228,5-0.282,6.596-0.282,19.327s0.054,14.326,0.282,19.326
	c0.228,4.99,1.02,8.396,2.179,11.379c1.198,3.082,2.801,5.695,5.407,8.303c2.606,2.606,5.22,4.208,8.303,5.406
	c2.982,1.159,6.389,1.951,11.378,2.179c5,0.228,6.596,0.282,19.327,0.282s14.326-0.055,19.326-0.282
	c4.99-0.228,8.396-1.02,11.379-2.179c3.082-1.198,5.695-2.8,8.303-5.406c2.605-2.607,4.208-5.221,5.406-8.303
	c1.159-2.982,1.951-6.389,2.179-11.379c0.228-5,0.282-6.596,0.282-19.326s-0.055-14.327-0.282-19.327
	c-0.228-4.989-1.02-8.396-2.179-11.378c-1.198-3.082-2.801-5.696-5.406-8.302c-2.607-2.606-5.221-4.209-8.303-5.407
	c-2.982-1.159-6.389-1.951-11.379-2.179C89.326,28.179,87.73,28.125,75,28.125z M75,36.571c12.516,0,13.998,0.048,18.941,0.273
	c4.57,0.208,7.053,0.972,8.703,1.614c2.189,0.85,3.75,1.866,5.391,3.506s2.656,3.202,3.507,5.39
	c0.642,1.652,1.405,4.134,1.614,8.704c0.225,4.943,0.273,6.425,0.273,18.941c0,12.516-0.049,13.998-0.273,18.941
	c-0.209,4.57-0.973,7.053-1.614,8.703c-0.851,2.189-1.866,3.75-3.507,5.391s-3.201,2.656-5.391,3.507
	c-1.65,0.642-4.133,1.405-8.703,1.614C89,113.381,87.518,113.43,75,113.43c-12.517,0-13.999-0.049-18.941-0.273
	c-4.57-0.209-7.052-0.973-8.704-1.614c-2.188-0.851-3.75-1.866-5.39-3.507c-1.641-1.641-2.656-3.201-3.506-5.391
	c-0.642-1.65-1.406-4.133-1.614-8.703c-0.226-4.943-0.273-6.426-0.273-18.941c0-12.516,0.048-13.999,0.273-18.941
	c0.208-4.57,0.972-7.052,1.614-8.704c0.85-2.188,1.866-3.75,3.506-5.39c1.64-1.64,3.202-2.656,5.39-3.506
	c1.652-0.642,4.134-1.406,8.704-1.614C61.001,36.619,62.484,36.571,75,36.571z M75,50.929c-13.294,0-24.071,10.777-24.071,24.071
	S61.706,99.07,75,99.07S99.07,88.294,99.07,75S88.294,50.929,75,50.929z M75,90.625c-8.629,0-15.625-6.996-15.625-15.625
	c0-8.629,6.996-15.625,15.625-15.625c8.629,0,15.625,6.996,15.625,15.625C90.625,83.629,83.629,90.625,75,90.625z M105.646,49.978
	c0,3.107-2.518,5.625-5.625,5.625c-3.105,0-5.625-2.518-5.625-5.625c0-3.106,2.52-5.625,5.625-5.625
	C103.129,44.353,105.646,46.872,105.646,49.978z"/>
</svg>
