<svg width="150" height="150" viewBox="0 0 150 150" fill="none" xmlns="http://www.w3.org/2000/svg">
<path d="M131.25 62.5H79.0625C73.9375 47.9375 60.0625 37.5 43.75 37.5C23.0625 37.5 6.25 54.3125 6.25 75C6.25 95.6875 23.0625 112.5 43.75 112.5C60.0625 112.5 73.9375 102.062 79.0625 87.5H81.25L93.75 100L106.25 87.5L118.75 100L143.75 74.75L131.25 62.5ZM43.75 93.75C33.4375 93.75 25 85.3125 25 75C25 64.6875 33.4375 56.25 43.75 56.25C54.0625 56.25 62.5 64.6875 62.5 75C62.5 85.3125 54.0625 93.75 43.75 93.75Z" fill="black"/>
</svg>
