<svg width="150" height="150" viewBox="0 0 150 150" fill="none" xmlns="http://www.w3.org/2000/svg">
<path d="M75 37.5C81.875 37.5 87.5 43.125 87.5 50C87.5 56.875 81.875 62.5 75 62.5C68.125 62.5 62.5 56.875 62.5 50C62.5 43.125 68.125 37.5 75 37.5ZM75 100C91.875 100 111.25 108.062 112.5 112.5H37.5C38.9375 108 58.1875 100 75 100ZM75 25C61.1875 25 50 36.1875 50 50C50 63.8125 61.1875 75 75 75C88.8125 75 100 63.8125 100 50C100 36.1875 88.8125 25 75 25ZM75 87.5C58.3125 87.5 25 95.875 25 112.5V125H125V112.5C125 95.875 91.6875 87.5 75 87.5Z" fill="#e4eded"/>
</svg>
