<svg width="150" height="150" viewBox="0 0 150 150" fill="none" xmlns="http://www.w3.org/2000/svg">
<path d="M40.875 31.25C41.25 36.8125 42.1875 42.25 43.6875 47.4375L36.1875 54.9375C33.625 47.4375 32 39.5 31.4375 31.25H40.875ZM102.5 106.375C107.812 107.875 113.25 108.812 118.75 109.187V118.5C110.5 117.937 102.562 116.312 95 113.812L102.5 106.375ZM46.875 18.75H25C21.5625 18.75 18.75 21.5625 18.75 25C18.75 83.6875 66.3125 131.25 125 131.25C128.438 131.25 131.25 128.438 131.25 125V103.188C131.25 99.75 128.438 96.9375 125 96.9375C117.25 96.9375 109.688 95.6875 102.688 93.375C102.062 93.125 101.375 93.0625 100.75 93.0625C99.125 93.0625 97.5625 93.6875 96.3125 94.875L82.5625 108.625C64.875 99.5625 50.375 85.125 41.375 67.4375L55.125 53.6875C56.875 51.9375 57.375 49.5 56.6875 47.3125C54.375 40.3125 53.125 32.8125 53.125 25C53.125 21.5625 50.3125 18.75 46.875 18.75Z" fill="black"/>
</svg>
