<?xml version="1.0" encoding="utf-8"?>
<!-- Generator: Adobe Illustrator 16.0.2, SVG Export Plug-In . SVG Version: 6.00 Build 0)  -->
<!DOCTYPE svg PUBLIC "-//W3C//DTD SVG 1.1//EN" "http://www.w3.org/Graphics/SVG/1.1/DTD/svg11.dtd">
<svg version="1.1" id="Layer_1" xmlns="http://www.w3.org/2000/svg" xmlns:xlink="http://www.w3.org/1999/xlink" x="0px" y="0px"
	 width="170.079px" height="133.795px" viewBox="0 0 170.079 133.795" enable-background="new 0 0 170.079 133.795"
	 xml:space="preserve">
<path fill="#1D1C18" d="M108.314,38.152c1.825-0.025,3.332,1.493,3.346,3.366c0.013,1.882-1.455,3.391-3.303,3.392
	c-1.826,0.003-3.285-1.459-3.313-3.317C105.016,39.719,106.481,38.179,108.314,38.152z M112.141,120.442h1.823l-0.901-2.758
	L112.141,120.442z M11.858,120.442h1.822l-0.901-2.758L11.858,120.442z M83.866,115.999h-1.081v2.178h0.922
	c1.605,0,1.605-0.864,1.605-1.149C85.313,116.744,85.313,115.999,83.866,115.999z M170.079,114.288v10.658
	c0,4.889-3.696,8.85-8.254,8.85H8.255c-4.559,0-8.255-3.961-8.255-8.85v-10.658c0-4.887,3.696-8.848,8.255-8.848h29.148V41.108
	l-6.08,5.204l0.012-0.01c-0.976,0.841-2.23,1.312-3.534,1.312c-0.255,0-0.512-0.019-0.768-0.056c-1.534-0.219-2.899-1.084-3.75-2.37
	l-0.004-0.005l-9.969-15.104c-0.595-0.901-0.894-1.955-0.892-2.973c0.001-0.787,0.172-1.564,0.509-2.286
	c0.334-0.721,0.843-1.386,1.488-1.91v0.001l26.68-21.689C42.075,0.423,43.281,0,44.524,0h17.641c1.102-0.003,2.17,0.342,3.03,0.925
	c0.861,0.583,1.542,1.399,1.956,2.376l0.018,0.048l5.727,9.796h0.008v6.399c3.264-5.376,7.615-9.518,12.285-12.532
	c3.26-2.105,6.675-3.683,10.041-4.807c4.493-1.496,8.888-2.201,12.836-2.205c1.537,0.001,3.146,0.116,4.798,0.336
	c16.884,0.953,39.744,16.966,39.744,44.606c0,28.634-36.286,57.141-37.831,58.34l-2.778,2.158h49.827
	C166.383,105.44,170.079,109.401,170.079,114.288z M19.146,125.521l-4.661-12.433c-0.054-0.141-0.188-0.235-0.339-0.235h-2.63
	c-0.151,0-0.285,0.095-0.339,0.235L6.47,125.521c-0.043,0.11-0.027,0.234,0.041,0.333c0.066,0.097,0.178,0.155,0.296,0.155h2.948
	c0.156,0,0.294-0.099,0.343-0.245l0.742-2.197h3.83l0.786,2.203c0.052,0.143,0.188,0.239,0.341,0.239h3.011
	c0.119,0,0.229-0.059,0.298-0.155C19.173,125.757,19.188,125.631,19.146,125.521z M34.721,113.216c0-0.201-0.162-0.363-0.361-0.363
	h-2.632c-0.097,0-0.189,0.04-0.257,0.107c-0.067,0.069-0.104,0.161-0.104,0.258L31.42,120l-3.863-6.961
	c-0.063-0.115-0.184-0.187-0.315-0.187H24.15c-0.2,0-0.362,0.162-0.362,0.363v12.433c0,0.198,0.162,0.36,0.362,0.36h2.631
	c0.097,0,0.189-0.038,0.256-0.107c0.068-0.066,0.106-0.159,0.106-0.258l-0.055-6.801l3.879,6.979
	c0.064,0.115,0.185,0.187,0.315,0.187h3.076c0.199,0,0.361-0.162,0.361-0.36V113.216z M44.169,113.216
	c0-0.201-0.161-0.363-0.361-0.363H41.08c-0.199,0-0.361,0.162-0.361,0.363v12.433c0,0.198,0.162,0.36,0.361,0.36h2.728
	c0.2,0,0.361-0.162,0.361-0.36V113.216z M60.715,113.006c-0.067-0.097-0.178-0.153-0.294-0.153h-2.997
	c-0.159,0-0.301,0.107-0.346,0.261l-2.271,7.744l-2.284-7.744c-0.045-0.153-0.186-0.261-0.347-0.261h-3.044
	c-0.116,0-0.226,0.057-0.292,0.151c-0.068,0.094-0.088,0.218-0.049,0.327l4.248,12.433c0.051,0.146,0.187,0.245,0.342,0.245h2.712
	c0.153,0,0.29-0.097,0.341-0.243l4.326-12.433C60.801,113.224,60.782,113.101,60.715,113.006z M62.526,5.406
	c0-0.2-0.162-0.36-0.361-0.36H44.524c-0.083,0-0.164,0.028-0.229,0.08l-26.69,21.699c-0.144,0.117-0.175,0.324-0.073,0.478
	l9.966,15.101c0.058,0.087,0.149,0.145,0.251,0.159c0.104,0.015,0.207-0.016,0.286-0.083L42.56,30.047V95.25
	c0,0.198,0.161,0.359,0.361,0.359h19.244c0.199,0,0.361-0.161,0.361-0.359V5.406z M143.793,46.49h-8.116
	c-0.397,1.801-1.031,3.536-1.91,5.203c-1.114,3.429-3.022,6.394-5.721,8.898c-5.02,5.014-12.477,8.096-19.573,8.096
	c-7.499,0-14.155-3.131-19.572-8.096c-4.056-3.718-6.383-8.792-7.442-14.101h-8.316c0.136,0.852,0.288,1.708,0.48,2.575
	c1.354,6.148,4.171,11.698,7.514,16.991c4.922,7.789,10.918,14.703,17.546,21.074c3.045,2.925,6.234,5.698,9.384,8.563
	c0.412-0.301,0.617-0.438,0.807-0.593c7.138-5.795,13.702-12.172,19.571-19.254c4.919-5.936,9.248-12.254,12.338-19.354
	C142.216,53.194,143.237,49.863,143.793,46.49z M116.91,38.01h12.084c-0.723-4.319-2.568-8.131-5.732-11.271
	c-5.304-5.263-11.713-7.203-19.063-5.872c-8.434,1.528-15.293,8.753-16.594,17.144h11.727c1.34-3.549,5.039-6.167,8.864-6.167
	C112.295,31.842,115.557,34.457,116.91,38.01z M108.366,36.063c-3.01-0.009-5.486,2.454-5.493,5.461
	c-0.007,3.022,2.438,5.474,5.465,5.478c3.032,0.006,5.488-2.433,5.493-5.446C113.836,38.54,111.38,36.072,108.366,36.063z
	 M87.545,43.931c0.104,0.77,0.215,1.541,0.398,2.293c2.596,10.695,12.822,17.493,23.748,15.757c5.259-0.835,9.56-3.387,12.91-7.502
	c2.511-3.082,3.997-6.607,4.457-10.548h-11.83c-1.171,3.798-5.033,6.66-9.033,6.66c-4.289,0-7.67-2.854-8.896-6.66H87.545z
	 M72.903,36.06h8.277c0.385-1.965,1.044-3.856,1.998-5.667c1.115-3.425,3.024-6.391,5.722-8.896
	c5.021-5.013,12.477-8.097,19.572-8.097c7.501,0,14.157,3.131,19.573,8.097c4.175,3.828,6.521,9.09,7.533,14.563h8.366
	c-0.229-1.655-0.582-3.32-1.068-4.997c-4.951-17.029-21.68-28.162-39.839-25.452c-7.576,1.131-14.222,4.352-19.612,9.799
	C77.374,21.527,73.853,28.424,72.903,36.06z M73.938,123.083c0-0.198-0.162-0.359-0.361-0.359h-4.854v-1.858h4.3
	c0.2,0,0.361-0.164,0.361-0.361v-2.407c0-0.199-0.161-0.36-0.361-0.36h-4.3v-1.613h4.57c0.199,0,0.36-0.161,0.36-0.361v-2.545
	c0-0.201-0.161-0.363-0.36-0.363h-7.547c-0.199,0-0.361,0.162-0.361,0.363v12.433c0,0.198,0.162,0.36,0.361,0.36h7.831
	c0.199,0,0.361-0.162,0.361-0.36V123.083z M89.271,125.475l-2.736-4.964c1.392-0.631,2.179-1.898,2.179-3.539
	c0-2.578-1.741-4.119-4.657-4.119h-4.28c-0.2,0-0.361,0.162-0.361,0.363v12.433c0,0.198,0.161,0.36,0.361,0.36h2.663
	c0.199,0,0.36-0.162,0.36-0.36v-4.575h0.335l2.326,4.734c0.061,0.123,0.186,0.201,0.324,0.201h3.171
	c0.127,0,0.245-0.067,0.311-0.179C89.331,125.722,89.333,125.585,89.271,125.475z M97.416,116.624c0-0.772,0.758-0.888,1.209-0.888
	c0.609,0,1.326,0.387,1.702,0.919c0.065,0.091,0.167,0.146,0.279,0.151c0.109,0.016,0.218-0.041,0.29-0.125l1.728-2.02
	c0.121-0.143,0.115-0.353-0.017-0.485c-0.99-1.011-2.498-1.636-3.936-1.636c-2.341,0-4.705,1.315-4.705,4.256
	c0,2.479,1.662,3.391,3.147,3.917c1.461,0.524,2.055,0.762,2.055,1.424c0,0.657-0.402,0.989-1.194,0.989
	c-0.754,0-1.65-0.489-2.132-1.165c-0.063-0.088-0.165-0.145-0.274-0.15c-0.107-0.013-0.216,0.039-0.29,0.121l-1.774,2.002
	c-0.12,0.135-0.121,0.338-0.004,0.474c1.019,1.183,2.732,1.917,4.475,1.917c2.318,0,4.657-1.394,4.657-4.506
	c0-2.748-2.242-3.55-3.73-4.079C97.751,117.338,97.416,117.144,97.416,116.624z M119.429,125.521l-4.661-12.433
	c-0.053-0.141-0.187-0.235-0.338-0.235h-2.632c-0.15,0-0.283,0.095-0.337,0.235l-4.709,12.433c-0.042,0.11-0.027,0.234,0.041,0.333
	c0.067,0.097,0.178,0.155,0.296,0.155h2.949c0.155,0,0.292-0.099,0.342-0.245l0.74-2.197h3.833l0.784,2.203
	c0.053,0.143,0.188,0.239,0.341,0.239h3.012c0.118,0,0.229-0.059,0.298-0.155C119.454,125.757,119.469,125.631,119.429,125.521z
	 M133.927,125.475l-2.734-4.964c1.39-0.631,2.177-1.898,2.177-3.539c0-2.578-1.741-4.119-4.657-4.119h-4.28
	c-0.199,0-0.36,0.162-0.36,0.363v12.433c0,0.198,0.161,0.36,0.36,0.36h2.663c0.199,0,0.361-0.162,0.361-0.36v-4.575h0.334
	l2.326,4.734c0.062,0.123,0.187,0.201,0.324,0.201h3.171c0.127,0,0.246-0.067,0.311-0.177
	C133.986,125.722,133.988,125.585,133.927,125.475z M142.437,113.216c0-0.201-0.161-0.363-0.36-0.363h-2.727
	c-0.2,0-0.361,0.162-0.361,0.363v12.433c0,0.198,0.161,0.36,0.361,0.36h2.727c0.199,0,0.36-0.162,0.36-0.36V113.216z
	 M160.858,119.378c0-4.036-2.665-6.857-6.48-6.857c-3.806,0-6.464,2.821-6.464,6.857c0,4.035,2.719,6.963,6.464,6.963
	C158.133,126.341,160.858,123.414,160.858,119.378z M128.523,115.999h-1.083v2.178h0.924c1.604,0,1.604-0.864,1.604-1.149
	C129.969,116.744,129.969,115.999,128.523,115.999z M154.378,115.947c-1.673,0-2.842,1.411-2.842,3.432
	c0,2.062,1.169,3.504,2.842,3.504c1.683,0,2.857-1.442,2.857-3.504C157.235,117.358,156.061,115.947,154.378,115.947z M27.044,47.56
	l-0.011-0.002l-0.009-0.001L27.044,47.56z M41.096,1.222L41.096,1.222l0.011-0.008L41.096,1.222z"/>
</svg>
