<?xml version="1.0" encoding="utf-8"?>
<!-- Generator: Adobe Illustrator 16.0.2, SVG Export Plug-In . SVG Version: 6.00 Build 0)  -->
<!DOCTYPE svg PUBLIC "-//W3C//DTD SVG 1.1//EN" "http://www.w3.org/Graphics/SVG/1.1/DTD/svg11.dtd">
<svg version="1.1" id="Layer_1" xmlns="http://www.w3.org/2000/svg" xmlns:xlink="http://www.w3.org/1999/xlink" x="0px" y="0px"
	 width="362.5px" height="179px" viewBox="-11.421 -10.622 362.5 179" enable-background="new -11.421 -10.622 362.5 179"
	 xml:space="preserve">
<g id="pokemon_x5F_place_x5F_logo">
	
		<path fill="#EDE4ED" stroke="#EDE4ED" stroke-width="16" stroke-linecap="round" stroke-linejoin="round" stroke-miterlimit="10" d="
		M330.528,109.509c-0.215-0.169-0.434-0.335-0.811-0.627h10.439c0-0.306,0-0.531-0.002-0.758c0-27.537,0.004-55.075-0.021-82.612
		c-0.002-0.645-0.207-1.368-0.533-1.924c-2.176-3.685-4.404-7.337-6.625-10.995c-0.502-0.827-0.996-1.649-0.902-2.748h-0.814
		c-8.42,0-16.838-0.032-25.258,0.016c-3.639,0.02-7.274,0.201-10.91,0.319c-1.197,0.039-1.197,0.052-1.219,1.225
		c0,0.085-0.008,0.169-0.021,0.375c-7.446-3.691-14.887-3.636-22.41-0.037V9.755h-0.834c-4.006,0-8.012,0.004-12.02-0.002
		c-1.969-0.002-3.939-0.02-5.91-0.036c-1.528-0.011-2.941,0.283-3.867,1.352c-1.314-0.432-2.499-0.945-3.734-1.189
		c-1.056-0.208-2.172-0.127-3.263-0.142c-1.36-0.019-2.724-0.005-4.084-0.005l-3.281-0.165c2.733-2.897,4.931-5.793,7.808-8.844
		h-0.864c-9.233,0-14.718,0.006-23.951-0.014c-0.56-0.001-0.83,0.177-1.056,0.678c-1.252,2.816-3.198,5.206-4.856,7.772
		c-0.339,0.526-0.903,0.597-1.479,0.597c-2.979-0.004-5.957-0.007-8.937-0.001c-5.847,0.011-11.696,0.028-17.544,0.041
		c-1.859,0.004-3.718,0.001-5.636,0.001v1.927c-0.457-0.173-0.831-0.299-1.194-0.453c-3.467-1.469-7.057-2.35-10.848-2.285
		c-4.689,0.081-8.876,1.644-12.668,4.345c-1.018,0.725-1.025,0.741-1.992,0.013c-3.48-2.621-7.447-3.614-11.745-3.598
		c-5.398,0.02-10.797-0.017-16.194-0.027c-0.358-0.001-0.715,0.031-1.13,0.051v12.113c-0.884,0.065-1.71,0.138-2.538,0.186
		c-3.204,0.184-6.41,0.352-9.615,0.546c-0.559,0.035-0.96-0.153-1.372-0.528c-4.64-4.214-9.09-8.654-14.376-12.101
		C86.444,4.893,77.93,1.69,68.668,0.507C66.996,0.293,65.312,0.166,63.634,0h-5.785c-1.254,0.125-2.507,0.239-3.759,0.379
		c-13.508,1.51-25.293,6.732-35.07,16.269C13.531,22,8.977,28.034,5.625,34.947c-2.787,5.75-4.543,11.798-5.247,18.149
		C0.237,54.368,0.125,55.645,0,56.92v5.783c0.122,1.253,0.243,2.506,0.368,3.76c0.748,7.577,2.773,14.813,5.871,21.756
		c3.739,8.382,8.628,16.08,14.045,23.459c4.707,6.409,9.906,12.402,15.401,18.147c5.776,6.038,12.004,11.595,18.205,17.182
		c3.291,2.965,6.577,5.934,9.86,8.908c0.282,0.256,0.523,0.561,0.784,0.841h0.128c0.167-0.163,0.315-0.353,0.505-0.485
		c5.937-4.203,11.39-8.988,16.71-13.934c8.912-8.286,17.098-17.227,24.384-26.977c1.397-1.869,2.729-3.785,4.068-5.697
		c0.405-0.579,0.886-0.838,1.608-0.834c5.014,0.021,10.027,0.012,15.039,0.012h0.641c-0.279,0.252-0.426,0.407-0.593,0.536
		c-3.432,2.63-5.131,6.101-5.078,10.429c0.03,2.416-0.003,4.836,0.065,7.25c0.16,5.795,5.234,11.047,11.034,11.459
		c0.833,0.059,1.666,0.09,2.502,0.09c62.407,0.004,124.813,0.002,187.219,0.002c6.533,0,11.668-4.441,12.59-10.895
		c0.061-0.443,0.078-0.896,0.078-1.346c-0.006-2.523,0.025-5.051-0.047-7.572C335.278,114.926,333.542,111.875,330.528,109.509z"/>
	<path fill="#1E1D19" d="M150.689,68.947c-0.755,1.711-2.229,2.561-3.975,2.844c-1.565,0.255-3.172,0.271-4.764,0.354
		c-0.855,0.045-1.715,0.008-2.601,0.008V61.697l0.123-0.077c2.544-0.011,5.102-0.253,7.617,0.288
		C150.527,62.645,152.102,65.75,150.689,68.947z M245.616,123.956h3.528l-1.744-4.813L245.616,123.956z M212.42,123.956h3.529
		l-1.746-4.813L212.42,123.956z M140.455,27.448c0.905-0.383,1.297-1.112,1.227-2.183c-0.063-0.955-0.496-1.58-1.483-1.752
		c-1.166-0.204-2.361-0.238-3.599-0.353v4.646C137.938,27.812,139.23,27.965,140.455,27.448z M194.426,118.29h-1.686v8.201h1.605
		c2.418,0,4.656-0.989,4.656-4.119C199.004,119.222,196.765,118.29,194.426,118.29z M174.786,123.956h3.527l-1.744-4.813
		L174.786,123.956z M219.941,80.127h10.737c-1.762-5.074-3.506-10.093-5.309-15.287C223.525,70.034,221.743,75.055,219.941,80.127z
		 M166.595,23.177c-2.471-0.221-4.824,1.126-5.854,3.461c-1.176,2.658-1.124,5.339,0.234,7.92c1.825,3.465,6.533,4.172,9.294,1.419
		c1.548-1.543,2.063-3.499,2.166-5.633c-0.125-0.801-0.185-1.617-0.384-2.398C171.346,25.172,169.312,23.419,166.595,23.177z
		 M278.633,123.956h3.527l-1.744-4.813L278.633,123.956z M314.543,123.956h3.529l-1.746-4.813L314.543,123.956z M55.667,60.742
		c0.042,2.83,2.265,5.058,5.043,5.054c2.81-0.002,5.044-2.299,5.024-5.166c-0.02-2.854-2.313-5.163-5.089-5.124
		C57.854,55.545,55.625,57.89,55.667,60.742z M340.157,108.882h-10.439c0.377,0.292,0.596,0.458,0.811,0.627
		c3.014,2.366,4.75,5.417,4.859,9.285c0.072,2.521,0.041,5.049,0.047,7.572c0,0.449-0.018,0.902-0.078,1.346
		c-0.922,6.453-6.057,10.895-12.59,10.895c-62.406,0-124.813,0.002-187.219-0.002c-0.836,0-1.669-0.031-2.502-0.09
		c-5.8-0.412-10.874-5.664-11.034-11.459c-0.068-2.414-0.035-4.834-0.065-7.25c-0.053-4.328,1.646-7.799,5.078-10.429
		c0.167-0.129,0.314-0.284,0.593-0.536h-0.641c-5.012,0-10.025,0.01-15.039-0.012c-0.722-0.004-1.203,0.255-1.608,0.834
		c-1.339,1.912-2.671,3.828-4.068,5.697c-7.286,9.75-15.472,18.69-24.384,26.977c-5.32,4.945-10.773,9.73-16.71,13.934
		c-0.19,0.133-0.338,0.322-0.505,0.485h-0.128c-0.261-0.28-0.502-0.585-0.784-0.841c-3.283-2.975-6.569-5.943-9.86-8.908
		c-6.201-5.587-12.429-11.144-18.205-17.182c-5.495-5.745-10.694-11.738-15.401-18.147c-5.417-7.379-10.306-15.077-14.045-23.459
		C3.141,81.276,1.116,74.04,0.368,66.463C0.243,65.209,0.122,63.956,0,62.703V56.92c0.125-1.275,0.237-2.552,0.378-3.824
		c0.704-6.351,2.46-12.399,5.247-18.149C8.977,28.034,13.531,22,19.02,16.648C28.797,7.111,40.582,1.889,54.09,0.379
		c1.252-0.14,2.505-0.254,3.759-0.379h5.785c1.678,0.166,3.362,0.293,5.034,0.507c9.262,1.183,17.776,4.386,25.591,9.48
		c5.286,3.447,9.736,7.887,14.376,12.101c0.412,0.375,0.813,0.563,1.372,0.528c3.205-0.194,6.411-0.362,9.615-0.546
		c0.828-0.048,1.654-0.121,2.538-0.186V9.771c0.415-0.02,0.772-0.052,1.13-0.051c5.397,0.01,10.796,0.047,16.194,0.027
		c4.298-0.016,8.265,0.977,11.745,3.598c0.967,0.729,0.974,0.712,1.992-0.013c3.792-2.701,7.979-4.264,12.668-4.345
		c3.791-0.065,7.381,0.816,10.848,2.285c0.363,0.154,0.737,0.28,1.194,0.453V9.798c1.918,0,3.776,0.003,5.636-0.001
		c5.848-0.013,11.697-0.03,17.544-0.041c2.979-0.006,5.957-0.003,8.937,0.001c0.576,0,1.141-0.071,1.479-0.597
		c1.658-2.566,3.604-4.956,4.856-7.772c0.226-0.501,0.496-0.679,1.056-0.678c9.233,0.02,14.718,0.014,23.951,0.014h0.864
		c-2.877,3.051-5.074,5.947-7.808,8.844l3.281,0.165c1.36,0,2.724-0.014,4.084,0.005c1.091,0.015,2.207-0.066,3.263,0.142
		c1.235,0.244,2.42,0.757,3.734,1.189c0.926-1.069,2.339-1.363,3.867-1.352c1.971,0.016,3.941,0.034,5.91,0.036
		c4.008,0.006,8.014,0.002,12.02,0.002h0.834v1.988c7.523-3.599,14.964-3.654,22.41,0.037c0.014-0.206,0.021-0.29,0.021-0.375
		c0.021-1.173,0.021-1.187,1.219-1.225c3.636-0.118,7.271-0.299,10.91-0.319c8.42-0.048,16.838-0.016,25.258-0.016h0.814
		c-0.094,1.099,0.4,1.921,0.902,2.748c2.221,3.658,4.449,7.31,6.625,10.995c0.326,0.556,0.531,1.279,0.533,1.924
		c0.025,27.537,0.021,55.075,0.021,82.612C340.157,108.351,340.157,108.576,340.157,108.882z M114.624,68.203h-12.349
		c-0.602,2.74-1.567,5.382-2.903,7.922c-1.698,5.219-4.601,9.733-8.707,13.547C83.027,97.306,71.684,102,60.886,102
		c-11.411,0-21.54-4.769-29.779-12.329c-6.171-5.662-9.714-13.389-11.325-21.469H7.128c0.206,1.295,0.438,2.599,0.729,3.918
		c2.063,9.363,6.347,17.813,11.433,25.87c7.49,11.864,16.614,22.391,26.697,32.092c4.631,4.455,9.487,8.677,14.278,13.039
		c0.628-0.46,0.938-0.667,1.227-0.901c10.861-8.822,20.851-18.535,29.779-29.314c7.486-9.04,14.071-18.66,18.771-29.475
		C112.226,78.408,113.778,73.334,114.624,68.203z M73.721,55.29h18.39c-1.102-6.58-3.91-12.383-8.724-17.164
		c-8.069-8.014-17.82-10.97-29.006-8.942C41.55,31.51,31.112,42.512,29.135,55.29h17.841c2.039-5.406,7.667-9.391,13.486-9.391
		C66.701,45.899,71.663,49.876,73.721,55.29z M60.723,52.323c-4.58-0.014-8.348,3.736-8.357,8.317
		c-0.011,4.601,3.71,8.332,8.313,8.339c4.614,0.007,8.354-3.702,8.36-8.293S65.309,52.337,60.723,52.323z M29.043,64.303
		c0.157,1.174,0.327,2.345,0.606,3.495c3.95,16.282,19.509,26.635,36.132,23.992c8.003-1.271,14.546-5.159,19.646-11.424
		c3.818-4.691,6.08-10.062,6.779-16.063H74.207c-1.782,5.784-7.658,10.143-13.745,10.143c-6.525,0-11.668-4.347-13.535-10.143
		H29.043z M114.857,52.318c-0.349-2.521-0.885-5.057-1.626-7.608C105.698,18.78,80.245,1.83,52.615,5.956
		c-11.525,1.72-21.637,6.625-29.841,14.921C13.567,30.189,8.209,40.69,6.763,52.317h12.594c0.586-2.992,1.591-5.871,3.041-8.628
		c1.698-5.218,4.601-9.734,8.708-13.548c7.638-7.633,18.981-12.327,29.779-12.327c11.411,0,21.539,4.768,29.779,12.327
		c6.352,5.828,9.922,13.841,11.463,22.176L114.857,52.318L114.857,52.318z M300.661,44.292h7.271v-14.88
		c0.189,0.322,0.295,0.503,0.4,0.684c2.643,4.574,5.289,9.146,7.92,13.727c0.203,0.354,0.408,0.523,0.842,0.518
		c2.293-0.023,4.584-0.01,6.877-0.013c0.184,0,0.363-0.028,0.529-0.042v-27.67h-7.244v14.826c-0.205-0.354-0.334-0.572-0.461-0.792
		c-2.607-4.521-5.223-9.037-7.814-13.565c-0.221-0.38-0.449-0.528-0.895-0.523c-2.271,0.024-4.541,0.011-6.812,0.013
		c-0.205,0-0.409,0.019-0.614,0.029V44.292L300.661,44.292z M234.193,44.275h7.103V30.062c0.139,0.379,0.238,0.629,0.324,0.883
		c1.414,4.214,2.834,8.426,4.227,12.646c0.18,0.547,0.396,0.785,1.018,0.756c1.282-0.062,2.569-0.04,3.854-0.009
		c0.515,0.014,0.771-0.11,0.953-0.648c1.469-4.353,2.979-8.691,4.478-13.033c0.069-0.206,0.163-0.404,0.3-0.74v14.36h7.34V16.605
		h-9.968c-1.582,4.965-3.171,9.947-4.81,15.085c-0.147-0.413-0.237-0.65-0.319-0.891c-1.509-4.542-3.022-9.081-4.515-13.628
		c-0.15-0.459-0.359-0.616-0.854-0.611c-2.826,0.026-5.654,0.013-8.48,0.013h-0.647v27.702H234.193z M215.991,14.5
		c1.9,0,3.653-0.025,5.404,0.015c0.568,0.013,0.949-0.176,1.324-0.575c2.003-2.134,4.025-4.249,6.042-6.37h-8.101
		C219.124,9.853,217.584,12.135,215.991,14.5z M211.204,44.289h18.672v-6.982h-11.347v-3.803h10.113v-6.676h-10.108v-3.319h10.688
		V16.59h-18.019V44.289L211.204,44.289z M184.606,44.274h7.421V33.879c0.229,0.282,0.361,0.436,0.483,0.598
		c2.365,3.123,4.734,6.244,7.089,9.375c0.253,0.338,0.514,0.491,0.952,0.487c2.85-0.021,5.699-0.011,8.549-0.012
		c0.184,0,0.363-0.02,0.664-0.036c-3.969-5.004-7.869-9.923-11.78-14.855c3.763-4.288,7.478-8.523,11.286-12.863
		c-3.23,0-6.29-0.006-9.352,0.018c-0.185,0-0.407,0.195-0.543,0.357c-2.34,2.816-4.666,5.643-7,8.464
		c-0.084,0.102-0.193,0.183-0.371,0.347v-9.145h-7.398V44.274z M180.458,52.867c-2.985,0.027-5.971,0.012-8.957,0.014
		c-0.228,0-0.459,0.024-0.688,0.036v44.662h26.955v-9.421h-16.566c0-0.339,0-0.61,0-0.884c0-11.22-0.005-22.439,0.014-33.66
		C181.215,53.015,181.045,52.861,180.458,52.867z M129.006,44.318h7.568v-9.846c0.353,0,0.628,0.011,0.902-0.002
		c1.238-0.057,2.488-0.031,3.711-0.199c2.725-0.375,5.109-1.438,6.677-3.835c1.399-2.141,1.593-4.521,1.196-6.972
		c-0.445-2.764-1.962-4.73-4.532-5.867c-1.63-0.722-3.354-1.007-5.121-1.02c-3.468-0.021-6.935-0.011-10.401-0.013V44.318
		L129.006,44.318z M145.455,121.142h-5.788v2.734h2.677v2.557c-0.595,0.258-1.327,0.377-2.12,0.377
		c-2.756,0-4.282-1.844-4.282-4.418c0-2.518,1.744-4.379,4.123-4.379c1.367,0,2.497,0.555,3.151,1.309l2.141-2.438
		c-1.17-1.129-3.211-1.862-5.411-1.862c-4.281,0-7.61,2.873-7.61,7.371c0,4.418,3.231,7.389,7.71,7.389
		c2.16,0,4.043-0.495,5.41-1.208L145.455,121.142L145.455,121.142z M152.077,79.655c4.356-1.409,7.522-4.042,8.829-8.539
		c0.65-2.231,0.742-4.514,0.452-6.808c-0.54-4.289-2.604-7.557-6.597-9.5c-2.896-1.409-6.002-1.895-9.183-1.918
		c-5.301-0.041-10.6-0.012-15.9-0.009c-0.227,0-0.453,0.031-0.673,0.046v44.637h10.313V80.728h0.806
		c1.558,0,3.116,0.012,4.672-0.002C147.273,80.706,149.714,80.42,152.077,79.655z M164.282,115.397h-3.389v8.459
		c0,1.506-0.714,2.894-2.636,2.894c-1.903,0-2.637-1.388-2.637-2.894v-8.459h-3.369v8.736c0,3.368,2.3,5.666,5.985,5.666
		c3.668,0,6.045-2.298,6.045-5.666L164.282,115.397L164.282,115.397z M166.945,44.998c4.976-0.263,8.841-2.489,11.384-6.814
		c1.762-3.002,2.232-6.298,1.896-9.724c-0.271-2.765-1.181-5.302-2.92-7.487c-2.849-3.575-6.677-5.053-11.14-5.117
		c-4.588,0.057-8.481,1.59-11.313,5.311c-2.148,2.824-2.904,6.085-2.854,9.592C152.114,38.911,158.112,45.464,166.945,44.998z
		 M184.102,129.423l-5.827-14.025h-3.29l-5.887,14.025h3.688l1.029-2.754h5.432l1.09,2.754H184.102z M202.532,122.372
		c0-5.311-4.043-6.975-8.025-6.975h-5.075v14.025h5.233C198.529,129.423,202.532,127.303,202.532,122.372z M221.735,129.423
		l-5.826-14.025h-3.289l-5.887,14.025h3.686l1.031-2.754h5.43l1.091,2.754H221.735z M235.904,126.472h-5.429v-11.074h-3.41v14.025
		h8.839V126.472z M237.477,97.622c2.074-0.029,4.152-0.014,6.229-0.014h4.664c-0.08-0.232-0.132-0.412-0.199-0.586
		c-5.776-14.516-11.558-29.029-17.324-43.549c-0.176-0.443-0.391-0.611-0.887-0.606c-2.877,0.025-5.754,0.028-8.631,0
		c-0.599-0.007-0.894,0.148-1.129,0.737c-5.795,14.462-11.617,28.915-17.434,43.37c-0.073,0.186-0.126,0.381-0.195,0.588
		c0.151,0.023,0.215,0.043,0.278,0.043c3.503,0.002,7.008-0.006,10.512,0.016c0.448,0.003,0.533-0.243,0.644-0.557
		c0.914-2.56,1.843-5.112,2.734-7.679c0.156-0.446,0.383-0.573,0.84-0.571c5.104,0.016,10.209,0.016,15.313,0
		c0.482-0.002,0.717,0.129,0.888,0.598c0.938,2.551,1.925,5.083,2.871,7.631C236.806,97.461,237,97.627,237.477,97.622z
		 M254.933,129.423l-5.828-14.025h-3.289l-5.886,14.025h3.686l1.029-2.754h5.432l1.09,2.754H254.933z M267.932,115.397h-3.409v9.252
		c0,1.228-0.258,2.08-1.366,2.08c-0.715,0-1.23-0.496-1.408-1.229l-2.992,1.012c0.515,1.922,2.201,3.288,4.559,3.288
		c3.825,0,4.618-2.952,4.618-5.171L267.932,115.397L267.932,115.397z M287.948,129.423l-5.826-14.025h-3.291l-5.886,14.025h3.687
		l1.029-2.754h5.432l1.091,2.754H287.948z M289.396,91.547c-2.405-2.397-4.772-4.761-7.14-7.122
		c-0.295,0.344-0.596,0.736-0.942,1.087c-4.854,4.94-13.249,4.386-17.442-1.149c-3.736-4.932-3.795-13.055-0.129-18.042
		c3.366-4.58,9.441-6.146,14.631-3.768c1.479,0.676,2.691,1.681,3.696,3.019c2.366-2.468,4.691-4.894,7.031-7.333
		c-1.417-1.685-3.09-2.949-4.989-3.92c-5.177-2.645-10.654-3.298-16.313-2.13c-7.297,1.506-12.694,5.542-15.822,12.31
		c-2.398,5.192-2.844,10.671-1.646,16.198c1.996,9.201,7.578,15.156,16.899,17.475c1.208,0.301,2.461,0.422,3.692,0.626h3.764
		c0.21-0.039,0.418-0.099,0.629-0.116c2.786-0.246,5.436-0.972,7.926-2.233C285.678,95.211,287.752,93.533,289.396,91.547z
		 M294.686,23.044c-2.63-4.957-6.99-7.049-12.279-7.197c-5.209,0.084-9.451,1.844-12.113,6.266
		c-3.031,5.033-3.141,10.386-0.485,15.573c2.754,5.382,7.491,7.573,13.427,7.298c3.041-0.141,5.764-1.193,8.115-3.146
		C296.969,37.171,297.639,28.616,294.686,23.044z M304.754,129.423l-3.668-6.003c1.804-0.555,2.914-1.901,2.914-3.782
		c0-3.21-2.676-4.24-5.371-4.24h-5.352v14.025h3.329v-5.566h1.149l3.033,5.566H304.754z M323.86,129.423l-5.828-14.025h-3.289
		l-5.887,14.025h3.688l1.029-2.754h5.432l1.088,2.754H323.86z M326.831,88.36h-19.805v-9.286h17.701v-8.688h-17.715v-8.353h18.77
		v-9.11h-28.759v44.638h29.808V88.36L326.831,88.36z M298.392,118.131h-1.804v3.269h1.604c1.092,0,2.458-0.276,2.458-1.702
		C300.65,118.39,299.401,118.131,298.392,118.131z M282.519,23.181c-2.44-0.122-4.371,0.894-5.511,3.064
		c-1.473,2.812-1.436,5.716,0.121,8.476c1.885,3.343,6.42,3.952,9.148,1.3c1.586-1.542,2.105-3.521,2.15-5.663l0.16-0.046
		c-0.276-1.134-0.42-2.32-0.855-3.39C286.801,24.625,285.025,23.307,282.519,23.181z"/>
	<path fill="#E01F24" d="M19.358,52.318H6.764c1.445-11.627,6.804-22.129,16.011-31.44c8.203-8.297,18.315-13.202,29.84-14.922
		c27.63-4.126,53.083,12.824,60.616,38.754c0.741,2.552,1.277,5.088,1.626,7.608h-12.729c-1.541-8.335-5.111-16.348-11.463-22.176
		c-8.24-7.56-18.368-12.327-29.779-12.327c-10.798,0-22.142,4.694-29.779,12.327c-4.107,3.813-7.01,8.33-8.708,13.548
		C20.949,46.447,19.944,49.326,19.358,52.318z M54.381,29.183C41.55,31.51,31.112,42.512,29.135,55.29h17.841
		c2.039-5.406,7.667-9.391,13.486-9.391c6.239,0,11.201,3.978,13.259,9.391h18.39c-1.102-6.58-3.91-12.383-8.724-17.164
		C75.317,30.112,65.566,27.156,54.381,29.183z M99.372,76.125c-1.698,5.219-4.601,9.733-8.707,13.547
		C83.027,97.306,71.684,102,60.886,102c-11.411,0-21.54-4.769-29.779-12.329c-6.171-5.662-9.714-13.389-11.325-21.469H7.128
		c0.206,1.295,0.438,2.599,0.729,3.918c2.063,9.363,6.347,17.813,11.433,25.87c7.49,11.864,16.614,22.391,26.697,32.092
		c4.631,4.455,9.487,8.677,14.278,13.039c0.628-0.46,0.938-0.667,1.227-0.901c10.861-8.822,20.851-18.535,29.779-29.314
		c7.486-9.04,14.071-18.66,18.771-29.475c2.184-5.022,3.736-10.097,4.582-15.229h-12.349
		C101.674,70.943,100.708,73.584,99.372,76.125z"/>
	<path fill="#FFFFFF" d="M74.207,64.303h17.999c-0.699,6.001-2.961,11.371-6.779,16.063c-5.1,6.265-11.643,10.152-19.646,11.424
		c-16.623,2.643-32.183-7.71-36.132-23.991c-0.279-1.15-0.449-2.321-0.606-3.495h17.884c1.867,5.796,7.01,10.143,13.535,10.143
		C66.549,74.446,72.425,70.087,74.207,64.303z M52.365,60.64c0.01-4.581,3.777-8.331,8.357-8.317
		c4.586,0.015,8.322,3.771,8.315,8.363c-0.007,4.591-3.746,8.3-8.36,8.293C56.075,68.972,52.354,65.241,52.365,60.64z
		 M55.667,60.742c0.042,2.83,2.265,5.058,5.043,5.054c2.81-0.002,5.044-2.299,5.024-5.166c-0.02-2.854-2.313-5.163-5.089-5.124
		C57.854,55.545,55.625,57.89,55.667,60.742z M249.104,115.397l5.828,14.025h-3.768l-1.09-2.754h-5.432l-1.029,2.754h-3.686
		l5.886-14.025H249.104z M249.145,123.956l-1.744-4.813l-1.783,4.813H249.145z M264.522,124.649c0,1.228-0.258,2.08-1.367,2.08
		c-0.714,0-1.229-0.496-1.408-1.229l-2.992,1.012c0.516,1.922,2.201,3.288,4.56,3.288c3.825,0,4.618-2.952,4.618-5.171v-9.23h-3.409
		L264.522,124.649L264.522,124.649z M178.274,115.397l5.827,14.025h-3.767l-1.09-2.754h-5.432l-1.029,2.754h-3.688l5.887-14.025
		H178.274z M178.313,123.956l-1.744-4.813l-1.783,4.813H178.313z M215.909,115.397l5.826,14.025h-3.766l-1.09-2.754h-5.432
		l-1.029,2.754h-3.687l5.886-14.025H215.909z M215.95,123.956l-1.746-4.813l-1.783,4.813H215.95z M202.532,122.372
		c0,4.932-4.003,7.052-7.867,7.052h-5.233v-14.024h5.075C198.489,115.397,202.532,117.062,202.532,122.372z M199.004,122.372
		c0-3.15-2.239-4.082-4.578-4.082h-1.686v8.201h1.605C196.765,126.491,199.004,125.501,199.004,122.372z M160.894,123.856
		c0,1.506-0.714,2.894-2.636,2.894c-1.903,0-2.637-1.388-2.637-2.894v-8.459h-3.369v8.736c0,3.368,2.3,5.666,5.985,5.666
		c3.668,0,6.045-2.298,6.045-5.666v-8.736h-3.389L160.894,123.856L160.894,123.856z M230.476,115.397h-3.41v14.025h8.839v-2.951
		h-5.429V115.397z M139.667,123.876h2.677v2.557c-0.595,0.258-1.327,0.377-2.12,0.377c-2.756,0-4.282-1.844-4.282-4.418
		c0-2.518,1.744-4.379,4.123-4.379c1.367,0,2.497,0.555,3.151,1.309l2.141-2.438c-1.17-1.129-3.211-1.862-5.411-1.862
		c-4.281,0-7.61,2.873-7.61,7.371c0,4.418,3.231,7.389,7.71,7.389c2.16,0,4.043-0.495,5.41-1.208v-7.431h-5.788L139.667,123.876
		L139.667,123.876z M318.032,115.397l5.828,14.025h-3.768l-1.09-2.754h-5.432l-1.029,2.754h-3.686l5.885-14.025H318.032z
		 M318.073,123.956l-1.746-4.813l-1.783,4.813H318.073z M282.122,115.397l5.826,14.025h-3.766l-1.092-2.754h-5.43l-1.031,2.754
		h-3.686l5.887-14.025H282.122z M282.161,123.956l-1.744-4.813l-1.783,4.813H282.161z M301.086,123.42l3.668,6.003h-3.965
		l-3.033-5.566h-1.148v5.566h-3.329v-14.025h5.353c2.695,0,5.371,1.03,5.371,4.24C304,121.519,302.89,122.866,301.086,123.42z
		 M300.65,119.697c0-1.308-1.249-1.565-2.259-1.565h-1.805v3.27h1.604C299.284,121.399,300.65,121.123,300.65,119.697z
		 M229.875,37.306h-11.347v-3.803h10.113v-6.676h-10.108v-3.319h10.688V16.59h-18.019v27.698h18.672V37.306L229.875,37.306z
		 M221.396,14.515c0.567,0.013,0.949-0.176,1.324-0.575c2.003-2.134,4.024-4.249,6.042-6.37h-8.1
		c-1.539,2.283-3.078,4.565-4.672,6.931C217.892,14.5,219.645,14.475,221.396,14.515z M192.027,33.879
		c0.229,0.282,0.361,0.436,0.483,0.598c2.365,3.123,4.734,6.244,7.089,9.375c0.253,0.338,0.514,0.491,0.952,0.487
		c2.85-0.021,5.699-0.011,8.549-0.012c0.184,0,0.363-0.02,0.664-0.036c-3.969-5.004-7.869-9.923-11.78-14.855
		c3.763-4.288,7.478-8.523,11.286-12.863c-3.23,0-6.29-0.006-9.352,0.018c-0.185,0-0.408,0.195-0.543,0.357
		c-2.34,2.816-4.666,5.643-7,8.464c-0.084,0.102-0.193,0.183-0.371,0.347v-9.145h-7.398v27.66h7.421V33.879z M307.932,29.412
		c0.189,0.322,0.297,0.503,0.4,0.684c2.643,4.574,5.289,9.146,7.922,13.727c0.203,0.354,0.406,0.523,0.842,0.518
		c2.291-0.023,4.582-0.01,6.875-0.013c0.184,0,0.365-0.028,0.531-0.042v-27.67h-7.244v14.826c-0.207-0.354-0.336-0.572-0.463-0.792
		c-2.607-4.521-5.223-9.037-7.814-13.565c-0.219-0.38-0.447-0.528-0.893-0.523c-2.271,0.024-4.543,0.011-6.813,0.013
		c-0.205,0-0.41,0.019-0.615,0.029v27.689h7.271V29.412L307.932,29.412z M171.5,52.88c-0.228,0-0.459,0.024-0.688,0.036v44.662
		h26.955v-9.421h-16.566c0-0.338,0-0.61,0-0.883c0-11.222-0.005-22.44,0.014-33.662c0.002-0.599-0.168-0.753-0.758-0.747
		C177.472,52.894,174.487,52.878,171.5,52.88z M241.295,30.062c0.139,0.379,0.238,0.629,0.324,0.883
		c1.414,4.214,2.834,8.426,4.227,12.646c0.18,0.547,0.396,0.785,1.018,0.756c1.282-0.062,2.569-0.04,3.854-0.009
		c0.515,0.014,0.771-0.11,0.953-0.648c1.469-4.353,2.979-8.691,4.478-13.033c0.069-0.206,0.163-0.404,0.3-0.74v14.36h7.34V16.605
		h-9.968c-1.582,4.965-3.171,9.947-4.81,15.085c-0.147-0.413-0.237-0.65-0.319-0.891c-1.509-4.542-3.022-9.081-4.515-13.628
		c-0.15-0.459-0.359-0.616-0.854-0.611c-2.826,0.026-5.654,0.013-8.48,0.013h-0.647v27.702h7.103V30.062H241.295z M307.026,88.36
		v-9.286h17.701v-8.688h-17.715v-8.353h18.77v-9.11h-28.759v44.638h29.808V88.36H307.026z M281.313,85.513
		c-4.854,4.939-13.249,4.385-17.441-1.15c-3.738-4.932-3.797-13.055-0.129-18.042c3.365-4.58,9.44-6.146,14.631-3.768
		c1.478,0.676,2.69,1.681,3.695,3.019c2.366-2.468,4.691-4.894,7.031-7.333c-1.417-1.685-3.09-2.949-4.989-3.92
		c-5.177-2.645-10.653-3.298-16.312-2.13c-7.299,1.506-12.695,5.542-15.823,12.31c-2.399,5.192-2.845,10.671-1.646,16.198
		c1.996,9.201,7.578,15.156,16.898,17.475c1.208,0.301,2.461,0.422,3.693,0.626h3.763c0.21-0.039,0.418-0.099,0.629-0.116
		c2.786-0.246,5.437-0.972,7.927-2.233c2.436-1.234,4.51-2.913,6.153-4.898c-2.405-2.397-4.772-4.761-7.14-7.122
		C281.961,84.769,281.661,85.162,281.313,85.513z M166.945,44.998c-8.833,0.467-14.831-6.087-14.947-14.24
		c-0.05-3.507,0.706-6.768,2.854-9.592c2.831-3.721,6.725-5.254,11.313-5.311c4.464,0.064,8.291,1.542,11.14,5.117
		c1.74,2.186,2.648,4.723,2.92,7.487c0.337,3.426-0.135,6.722-1.896,9.724C175.786,42.508,171.92,44.735,166.945,44.998z
		 M172.435,30.344c-0.125-0.801-0.185-1.617-0.384-2.398c-0.705-2.773-2.739-4.526-5.456-4.769
		c-2.471-0.221-4.824,1.126-5.854,3.461c-1.176,2.658-1.124,5.339,0.234,7.92c1.825,3.465,6.533,4.172,9.294,1.419
		C171.816,34.434,172.331,32.478,172.435,30.344z M237.477,97.622c-0.477,0.006-0.671-0.16-0.828-0.58
		c-0.945-2.548-1.934-5.08-2.871-7.631c-0.171-0.469-0.404-0.6-0.888-0.598c-5.104,0.016-10.208,0.016-15.313,0
		c-0.457-0.002-0.683,0.125-0.839,0.571c-0.893,2.565-1.821,5.119-2.733,7.679c-0.11,0.313-0.195,0.56-0.645,0.557
		c-3.504-0.021-7.009-0.014-10.512-0.016c-0.063,0-0.127-0.02-0.278-0.043c0.069-0.207,0.122-0.402,0.195-0.588
		c5.815-14.455,11.639-28.908,17.433-43.37c0.236-0.589,0.531-0.744,1.129-0.737c2.877,0.028,5.754,0.025,8.631,0
		c0.496-0.005,0.711,0.163,0.888,0.606c5.768,14.52,11.548,29.034,17.323,43.549c0.068,0.174,0.121,0.354,0.199,0.586h-4.662
		C241.629,97.608,239.551,97.592,237.477,97.622z M230.679,80.127c-1.763-5.074-3.505-10.093-5.31-15.287
		c-1.845,5.193-3.627,10.215-5.429,15.287H230.679z M291.349,41.837c-2.353,1.953-5.074,3.006-8.115,3.146
		c-5.937,0.275-10.673-1.916-13.427-7.298c-2.654-5.188-2.546-10.54,0.484-15.573c2.664-4.422,6.904-6.182,12.115-6.266
		c5.288,0.148,9.648,2.24,12.278,7.197C297.639,28.616,296.969,37.171,291.349,41.837z M288.59,30.312
		c-0.277-1.134-0.422-2.32-0.856-3.39c-0.933-2.298-2.708-3.615-5.215-3.741c-2.44-0.122-4.371,0.894-5.511,3.064
		c-1.473,2.812-1.436,5.716,0.121,8.476c1.885,3.343,6.42,3.952,9.148,1.3c1.586-1.542,2.105-3.521,2.15-5.663L288.59,30.312z
		 M136.574,44.318h-7.568V16.565c3.467,0.002,6.934-0.009,10.401,0.013c1.767,0.013,3.491,0.298,5.121,1.02
		c2.57,1.137,4.087,3.104,4.532,5.867c0.396,2.451,0.203,4.831-1.196,6.972c-1.567,2.397-3.952,3.46-6.677,3.835
		c-1.223,0.168-2.473,0.143-3.711,0.199c-0.274,0.013-0.55,0.002-0.902,0.002V44.318L136.574,44.318z M136.6,27.807
		c1.339,0.005,2.631,0.158,3.855-0.359c0.905-0.383,1.297-1.112,1.227-2.183c-0.063-0.955-0.496-1.58-1.483-1.752
		c-1.166-0.204-2.361-0.238-3.599-0.353V27.807z M152.077,79.655c-2.363,0.766-4.804,1.051-7.281,1.07
		c-1.556,0.014-3.114,0.002-4.672,0.002h-0.806v16.836h-10.313V52.927c0.22-0.015,0.446-0.046,0.673-0.046
		c5.301-0.003,10.6-0.032,15.9,0.009c3.181,0.023,6.287,0.509,9.183,1.918c3.993,1.943,6.057,5.211,6.597,9.5
		c0.29,2.294,0.198,4.576-0.452,6.808C159.6,75.613,156.434,78.246,152.077,79.655z M147.091,61.908
		c-2.516-0.541-5.073-0.299-7.617-0.288l-0.123,0.077v10.455c0.886,0,1.745,0.037,2.601-0.008c1.592-0.082,3.198-0.099,4.764-0.354
		c1.746-0.283,3.22-1.133,3.975-2.844C152.102,65.75,150.527,62.645,147.091,61.908z"/>
</g>
</svg>
