<svg width="150" height="150" viewBox="0 0 150 150" fill="none" xmlns="http://www.w3.org/2000/svg">
<path d="M98.4688 89.0938H93.5312L91.7812 87.4062C97.9062 80.2812 101.594 71.0312 101.594 60.9688C101.594 38.5312 83.4062 20.3438 60.9688 20.3438C38.5312 20.3438 20.3438 38.5312 20.3438 60.9688C20.3438 83.4062 38.5312 101.594 60.9688 101.594C71.0312 101.594 80.2812 97.9062 87.4062 91.7812L89.0938 93.5312V98.4688L120.344 129.656L129.656 120.344L98.4688 89.0938ZM60.9688 89.0938C45.4062 89.0938 32.8438 76.5312 32.8438 60.9688C32.8438 45.4062 45.4062 32.8438 60.9688 32.8438C76.5312 32.8438 89.0938 45.4062 89.0938 60.9688C89.0938 76.5312 76.5312 89.0938 60.9688 89.0938Z" fill="black"/>
</svg>
