<svg width="150" height="150" viewBox="0 0 150 150" fill="none" xmlns="http://www.w3.org/2000/svg">
<path d="M103.414 81.25C108.102 81.25 112.227 78.6875 114.352 74.8125L136.727 34.25C139.039 30.125 136.039 25 131.289 25H38.7893L32.9143 12.5H12.4768V25H24.9768L47.4768 72.4375L39.0393 87.6875C34.4768 96.0625 40.4768 106.25 49.9768 106.25H124.977V93.75H49.9768L56.8518 81.25H103.414ZM44.7268 37.5H120.664L103.414 68.75H59.5393L44.7268 37.5ZM49.9768 112.5C43.1018 112.5 37.5393 118.125 37.5393 125C37.5393 131.875 43.1018 137.5 49.9768 137.5C56.8518 137.5 62.4768 131.875 62.4768 125C62.4768 118.125 56.8518 112.5 49.9768 112.5ZM112.477 112.5C105.602 112.5 100.039 118.125 100.039 125C100.039 131.875 105.602 137.5 112.477 137.5C119.352 137.5 124.977 131.875 124.977 125C124.977 118.125 119.352 112.5 112.477 112.5Z" fill="black"/>
</svg>
