<svg width="148" height="150" viewBox="0 0 148 150" fill="none" xmlns="http://www.w3.org/2000/svg">
<path d="M137.5 46.875C137.5 34.8125 109.5 25 75 25C40.5 25 12.5 34.8125 12.5 46.875C12.5 58.1875 37.1875 67.5625 68.75 68.625V93.75H58.4375C53.3125 93.75 48.75 96.875 46.8125 101.625L37.5 125H50L57.5 106.25H92.5L100 125H112.5L103.125 101.625C101.25 96.875 96.625 93.75 91.5625 93.75H81.25V68.625C112.812 67.5625 137.5 58.1875 137.5 46.875ZM75 37.5C100.312 37.5 117.125 42.875 123.25 46.875C117.125 50.875 100.312 56.25 75 56.25C49.6875 56.25 32.875 50.875 26.75 46.875C32.875 42.875 49.6875 37.5 75 37.5Z" fill="black"/>
</svg>
