<?xml version="1.0" encoding="utf-8"?>
<!-- Generator: Adobe Illustrator 16.0.2, SVG Export Plug-In . SVG Version: 6.00 Build 0)  -->
<!DOCTYPE svg PUBLIC "-//W3C//DTD SVG 1.1//EN" "http://www.w3.org/Graphics/SVG/1.1/DTD/svg11.dtd">
<svg version="1.1" id="Layer_1" xmlns="http://www.w3.org/2000/svg" xmlns:xlink="http://www.w3.org/1999/xlink" x="0px" y="0px"
	 width="150px" height="150px" viewBox="0 0 150 150" enable-background="new 0 0 150 150" xml:space="preserve">
<path fill="#EBE4E9" d="M53.433,37.527l56.049,74.943H96.791L40.74,37.527H53.433z M150,75c0,41.422-33.579,75-75,75S0,116.422,0,75
	C0,33.579,33.579,0,75,0S150,33.579,150,75z M121.425,118.451L83.559,67.822l33.578-36.276h-8.119L79.932,62.971L56.43,31.546H28.8
	v0.001L64.649,79.48l-36.075,38.972h8.12l31.584-34.121l25.517,34.121L121.425,118.451L121.425,118.451z"/>
</svg>
