<?xml version="1.0" encoding="utf-8"?>
<!-- Generator: Adobe Illustrator 16.0.2, SVG Export Plug-In . SVG Version: 6.00 Build 0)  -->
<!DOCTYPE svg PUBLIC "-//W3C//DTD SVG 1.1//EN" "http://www.w3.org/Graphics/SVG/1.1/DTD/svg11.dtd">
<svg version="1.1" id="Layer_1" xmlns="http://www.w3.org/2000/svg" xmlns:xlink="http://www.w3.org/1999/xlink" x="0px" y="0px"
	 width="113.386px" height="142.583px" viewBox="0 0 113.386 142.583" enable-background="new 0 0 113.386 142.583"
	 xml:space="preserve">
<g id="pokemon_x5F_place_x5F_pokeball">
	<path fill="#1D1C18" d="M56.538,51.811c2.591-0.037,4.729,2.119,4.748,4.783c0.019,2.676-2.065,4.819-4.687,4.821
		c-2.593,0.003-4.666-2.075-4.706-4.718C51.854,54.036,53.934,51.848,56.538,51.811z M113.386,53.131v5.398
		c-0.114,1.17-0.228,2.34-0.344,3.51c-0.704,7.073-2.61,13.826-5.524,20.308c-3.52,7.823-8.12,15.01-13.218,21.897
		c-4.429,5.982-9.323,11.575-14.492,16.939c-5.437,5.636-11.297,10.823-17.132,16.039c-1.996,1.785-3.989,3.573-5.983,5.36
		c-1.994-1.787-3.987-3.575-5.983-5.36c-5.835-5.216-11.695-10.403-17.131-16.039c-5.171-5.364-10.063-10.957-14.494-16.939
		C13.988,97.356,9.388,90.17,5.869,82.347c-2.915-6.481-4.82-13.234-5.525-20.308c-0.116-1.17-0.23-2.34-0.344-3.51v-5.398
		c0.118-1.189,0.224-2.382,0.355-3.569c0.662-5.928,2.314-11.574,4.938-16.94c3.154-6.453,7.44-12.086,12.604-17.082
		C27.099,6.638,38.189,1.763,50.899,0.354C52.077,0.223,53.257,0.116,54.436,0h2.257h2.258c1.178,0.116,2.357,0.223,3.535,0.354
		c12.711,1.409,23.8,6.284,33.001,15.186c5.167,4.996,9.451,10.629,12.605,17.082c2.623,5.366,4.276,11.013,4.938,16.94
		C113.163,50.749,113.269,51.941,113.386,53.131z M106.903,63.662H95.381c-0.562,2.559-1.463,5.023-2.709,7.396
		c-1.584,4.871-4.293,9.086-8.124,12.645c-7.126,7.125-17.71,11.509-27.785,11.509c-10.647,0-20.098-4.452-27.786-11.509
		c-5.757-5.285-9.064-12.497-10.566-20.04H6.604c0.191,1.209,0.409,2.426,0.68,3.658c1.924,8.739,5.922,16.628,10.667,24.147
		c6.988,11.074,15.501,20.9,24.911,29.957c4.32,4.157,8.851,8.097,13.322,12.17c0.585-0.429,0.875-0.623,1.144-0.842
		c10.134-8.235,19.453-17.301,27.785-27.364c6.984-8.438,13.13-17.417,17.516-27.513C104.666,73.188,106.115,68.453,106.903,63.662z
		 M68.738,51.608h17.158c-1.027-6.142-3.647-11.559-8.139-16.021c-7.53-7.48-16.628-10.239-27.064-8.348
		c-11.971,2.173-21.711,12.441-23.557,24.368h16.647c1.903-5.046,7.154-8.765,12.584-8.765
		C62.188,42.844,66.818,46.557,68.738,51.608z M56.611,48.84c-4.274-0.013-7.791,3.487-7.799,7.764
		c-0.009,4.294,3.462,7.777,7.757,7.784c4.305,0.007,7.793-3.456,7.8-7.741S60.889,48.854,56.611,48.84z M27.051,60.023
		c0.148,1.095,0.306,2.188,0.566,3.261C31.301,78.483,45.82,88.146,61.33,85.68c7.468-1.188,13.571-4.815,18.33-10.663
		c3.563-4.38,5.673-9.392,6.325-14.993H69.192c-1.663,5.398-7.146,9.467-12.825,9.467c-6.089,0-10.887-4.058-12.629-9.467H27.051z
		 M107.122,48.836c-0.326-2.354-0.826-4.72-1.518-7.104C98.576,17.529,74.825,1.707,49.046,5.56
		c-10.754,1.605-20.189,6.184-27.844,13.928c-8.59,8.691-13.59,18.495-14.938,29.349h11.751c0.546-2.794,1.485-5.48,2.837-8.055
		c1.584-4.87,4.292-9.086,8.124-12.645c7.127-7.126,17.711-11.509,27.786-11.509c10.646,0,20.097,4.451,27.785,11.509
		c5.926,5.439,9.258,12.918,10.695,20.699H107.122z"/>
	<path fill="#FDFDFD" d="M85.985,60.023c-0.652,5.602-2.763,10.613-6.325,14.993c-4.759,5.848-10.862,9.476-18.33,10.663
		c-15.51,2.467-30.029-7.196-33.713-22.396c-0.26-1.073-0.418-2.166-0.566-3.261h16.687c1.742,5.409,6.541,9.467,12.629,9.467
		c5.678,0,11.162-4.068,12.825-9.467H85.985z M48.812,56.604c0.009-4.276,3.525-7.776,7.799-7.764
		c4.277,0.014,7.765,3.521,7.758,7.807s-3.495,7.748-7.8,7.741C52.274,64.381,48.803,60.897,48.812,56.604z M51.894,56.697
		c0.04,2.643,2.113,4.721,4.706,4.718c2.622-0.002,4.706-2.146,4.687-4.821c-0.019-2.664-2.157-4.82-4.748-4.783
		C53.934,51.848,51.854,54.036,51.894,56.697z"/>
	<path fill="#E01F24" d="M18.015,48.836H6.264c1.348-10.854,6.348-20.657,14.938-29.349c7.655-7.744,17.09-12.322,27.844-13.928
		c25.779-3.853,49.53,11.97,56.559,36.173c0.691,2.384,1.191,4.75,1.518,7.104H95.243c-1.438-7.781-4.77-15.26-10.695-20.699
		c-7.688-7.058-17.139-11.509-27.785-11.509c-10.075,0-20.659,4.383-27.786,11.509c-3.832,3.559-6.54,7.774-8.124,12.645
		C19.5,43.355,18.562,46.042,18.015,48.836z M92.672,71.058c-1.584,4.871-4.293,9.086-8.124,12.645
		c-7.126,7.125-17.71,11.509-27.785,11.509c-10.647,0-20.098-4.452-27.786-11.509c-5.757-5.285-9.064-12.497-10.566-20.04H6.604
		c0.191,1.209,0.409,2.426,0.68,3.658c1.924,8.739,5.922,16.628,10.667,24.147c6.988,11.074,15.501,20.9,24.911,29.957
		c4.32,4.157,8.851,8.097,13.322,12.17c0.585-0.429,0.875-0.623,1.144-0.842c10.134-8.235,19.453-17.301,27.785-27.364
		c6.984-8.438,13.13-17.417,17.516-27.513c2.037-4.688,3.486-9.423,4.274-14.214H95.381C94.819,66.221,93.918,68.686,92.672,71.058z
		 M50.693,27.24c-11.971,2.173-21.711,12.441-23.557,24.368h16.647c1.903-5.046,7.154-8.765,12.584-8.765
		c5.82,0,10.451,3.713,12.371,8.765h17.158c-1.027-6.142-3.647-11.559-8.139-16.021C70.228,28.107,61.13,25.349,50.693,27.24z"/>
</g>
</svg>
