<svg width="150" height="150" viewBox="0 0 150 150" fill="none" xmlns="http://www.w3.org/2000/svg">
<path d="M106.25 87.5C104.75 86 103.5 84.4375 102.188 82.8125C109.438 71.875 118.75 53.5 118.75 31.25C118.75 19.0625 114.125 12.5 106.25 12.5C96.625 12.5 81.5 25.375 75 49.8125C68.5 25.375 53.375 12.5 43.75 12.5C35.875 12.5 31.25 19.0625 31.25 31.25C31.25 53.5 40.5625 71.875 47.8125 82.8125C46.5 84.4375 45.25 86 43.75 87.5C42.1875 89.0625 31.25 96.1875 31.25 109.375C31.25 124.875 43.875 137.5 59.375 137.5C68.75 137.5 75 134.375 75 134.375C75 134.375 81.25 137.5 90.625 137.5C106.125 137.5 118.75 124.875 118.75 109.375C118.75 96.1875 107.812 89.0625 106.25 87.5ZM105.5 25.1875C105.875 26.25 106.25 28.1875 106.25 31.25C106.25 49 99.3125 64 93.3125 73.625C90.9375 72 88.125 70.625 84.5625 69.75C86.0625 41.5 99.8125 27.0625 105.5 25.1875ZM43.75 31.25C43.75 28.1875 44.125 26.25 44.5 25.1875C50.1875 27.0625 63.9375 41.5 65.5 69.75C61.875 70.625 59.0625 71.9375 56.75 73.625C50.6875 64 43.75 49 43.75 31.25ZM90.625 125C84.375 125 79.375 122.938 76.75 121.5C79.375 120.375 81.25 117.062 81.25 115.625C81.25 113.875 78.4375 112.5 75 112.5C71.5625 112.5 68.75 113.875 68.75 115.625C68.75 117.062 70.625 120.375 73.25 121.5C70.625 122.938 65.625 125 59.375 125C50.75 125 43.75 118 43.75 109.375C43.75 105 46.4375 101.625 50 98.5625C52.75 96.3125 53.8125 95.3125 58.125 90C62.875 84.0625 64.9375 81.25 75 81.25C85.0625 81.25 87.125 84.0625 91.875 90C96.1875 95.3125 97.25 96.3125 100 98.5625C103.562 101.625 106.25 105 106.25 109.375C106.25 118 99.25 125 90.625 125ZM87.5 100C87.5 102.562 86.125 104.688 84.375 104.688C82.625 104.688 81.25 102.562 81.25 100C81.25 97.4375 82.625 95.3125 84.375 95.3125C86.125 95.3125 87.5 97.4375 87.5 100ZM68.75 100C68.75 102.562 67.375 104.688 65.625 104.688C63.875 104.688 62.5 102.562 62.5 100C62.5 97.4375 63.875 95.3125 65.625 95.3125C67.375 95.3125 68.75 97.4375 68.75 100Z" fill="#ede4ed"/>
</svg>
