<?xml version="1.0" encoding="utf-8"?>
<!-- Generator: Adobe Illustrator 16.0.2, SVG Export Plug-In . SVG Version: 6.00 Build 0)  -->
<!DOCTYPE svg PUBLIC "-//W3C//DTD SVG 1.1//EN" "http://www.w3.org/Graphics/SVG/1.1/DTD/svg11.dtd">
<svg version="1.1" id="Layer_1" xmlns="http://www.w3.org/2000/svg" xmlns:xlink="http://www.w3.org/1999/xlink" x="0px" y="0px"
	 width="170.079px" height="133.795px" viewBox="0 0 170.079 133.795" enable-background="new 0 0 170.079 133.795"
	 xml:space="preserve">
<g id="_x31_0">
	<path fill="#1D1C18" d="M108.314,38.152c1.825-0.025,3.332,1.493,3.346,3.366c0.013,1.882-1.455,3.391-3.303,3.392
		c-1.826,0.003-3.285-1.459-3.313-3.317C105.016,39.719,106.481,38.179,108.314,38.152z M112.141,120.442h1.823l-0.901-2.758
		L112.141,120.442z M11.858,120.442h1.822l-0.901-2.758L11.858,120.442z M83.866,115.999h-1.081v2.178h0.922
		c1.605,0,1.605-0.864,1.605-1.149C85.313,116.744,85.313,115.999,83.866,115.999z M170.079,114.288v10.658
		c0,4.889-3.696,8.85-8.254,8.85H8.255c-4.559,0-8.255-3.961-8.255-8.85v-10.658c0-4.887,3.696-8.848,8.255-8.848h29.148V41.108
		l-6.08,5.204l0.012-0.01c-0.976,0.841-2.23,1.312-3.534,1.312c-0.255,0-0.512-0.019-0.768-0.056
		c-1.534-0.219-2.899-1.084-3.75-2.37l-0.004-0.005l-9.969-15.104c-0.595-0.901-0.894-1.955-0.892-2.973
		c0.001-0.787,0.172-1.564,0.509-2.286c0.334-0.721,0.843-1.386,1.488-1.91v0.001l26.68-21.689C42.075,0.423,43.281,0,44.524,0
		h17.641c1.102-0.003,2.17,0.342,3.03,0.925c0.861,0.583,1.542,1.399,1.956,2.376l0.018,0.048l5.727,9.796h0.008v6.399
		c3.264-5.376,7.615-9.518,12.285-12.532c3.26-2.105,6.675-3.683,10.041-4.807c4.493-1.496,8.888-2.201,12.836-2.205
		c1.537,0.001,3.146,0.116,4.798,0.336c16.884,0.953,39.744,16.966,39.744,44.606c0,28.634-36.286,57.141-37.831,58.34l-2.778,2.158
		h49.827C166.383,105.44,170.079,109.401,170.079,114.288z M19.146,125.521l-4.661-12.433c-0.054-0.141-0.188-0.235-0.339-0.235
		h-2.63c-0.151,0-0.285,0.095-0.339,0.235L6.47,125.521c-0.043,0.11-0.027,0.234,0.041,0.333c0.066,0.097,0.178,0.155,0.296,0.155
		h2.948c0.156,0,0.294-0.099,0.343-0.245l0.742-2.197h3.83l0.786,2.203c0.052,0.143,0.188,0.239,0.341,0.239h3.011
		c0.119,0,0.229-0.059,0.298-0.155C19.173,125.757,19.188,125.631,19.146,125.521z M34.721,113.216c0-0.201-0.162-0.363-0.361-0.363
		h-2.632c-0.097,0-0.189,0.04-0.257,0.107c-0.067,0.069-0.104,0.161-0.104,0.258L31.42,120l-3.863-6.961
		c-0.063-0.115-0.184-0.187-0.315-0.187H24.15c-0.2,0-0.362,0.162-0.362,0.363v12.433c0,0.198,0.162,0.36,0.362,0.36h2.631
		c0.097,0,0.189-0.038,0.256-0.107c0.068-0.066,0.106-0.159,0.106-0.258l-0.055-6.801l3.879,6.979
		c0.064,0.115,0.185,0.187,0.315,0.187h3.076c0.199,0,0.361-0.162,0.361-0.36V113.216z M44.169,113.216
		c0-0.201-0.161-0.363-0.361-0.363H41.08c-0.199,0-0.361,0.162-0.361,0.363v12.433c0,0.198,0.162,0.36,0.361,0.36h2.728
		c0.2,0,0.361-0.162,0.361-0.36V113.216z M60.715,113.006c-0.067-0.097-0.178-0.153-0.294-0.153h-2.997
		c-0.159,0-0.301,0.107-0.346,0.261l-2.271,7.744l-2.284-7.744c-0.045-0.153-0.186-0.261-0.347-0.261h-3.044
		c-0.116,0-0.226,0.057-0.292,0.151c-0.068,0.094-0.088,0.218-0.049,0.327l4.248,12.433c0.051,0.146,0.187,0.245,0.342,0.245h2.712
		c0.153,0,0.29-0.097,0.341-0.243l4.326-12.433C60.801,113.224,60.782,113.101,60.715,113.006z M62.526,5.406
		c0-0.2-0.162-0.36-0.361-0.36H44.524c-0.083,0-0.164,0.028-0.229,0.08l-26.69,21.699c-0.144,0.117-0.175,0.324-0.073,0.478
		l9.966,15.101c0.058,0.087,0.149,0.145,0.251,0.159c0.104,0.015,0.207-0.016,0.286-0.083L42.56,30.047V95.25
		c0,0.198,0.161,0.359,0.361,0.359h19.244c0.199,0,0.361-0.161,0.361-0.359V5.406z M143.793,46.49h-8.116
		c-0.397,1.801-1.031,3.536-1.91,5.203c-1.114,3.429-3.022,6.394-5.721,8.898c-5.02,5.014-12.477,8.096-19.573,8.096
		c-7.499,0-14.155-3.131-19.572-8.096c-4.056-3.718-6.383-8.792-7.442-14.101h-8.316c0.136,0.852,0.288,1.708,0.48,2.575
		c1.354,6.148,4.171,11.698,7.514,16.991c4.922,7.789,10.918,14.703,17.546,21.074c3.045,2.925,6.234,5.698,9.384,8.563
		c0.412-0.301,0.617-0.438,0.807-0.593c7.138-5.795,13.702-12.172,19.571-19.254c4.919-5.936,9.248-12.254,12.338-19.354
		C142.216,53.194,143.237,49.863,143.793,46.49z M116.91,38.01h12.084c-0.723-4.319-2.568-8.131-5.732-11.271
		c-5.304-5.263-11.713-7.203-19.063-5.872c-8.434,1.528-15.293,8.753-16.594,17.144h11.727c1.34-3.549,5.039-6.167,8.864-6.167
		C112.295,31.842,115.557,34.457,116.91,38.01z M108.366,36.063c-3.01-0.009-5.486,2.454-5.493,5.461
		c-0.007,3.022,2.438,5.474,5.465,5.478c3.032,0.006,5.488-2.433,5.493-5.446C113.836,38.54,111.38,36.072,108.366,36.063z
		 M87.545,43.931c0.104,0.77,0.215,1.541,0.398,2.293c2.596,10.695,12.822,17.493,23.748,15.757c5.259-0.835,9.56-3.387,12.91-7.502
		c2.511-3.082,3.997-6.607,4.457-10.548h-11.83c-1.171,3.798-5.033,6.66-9.033,6.66c-4.289,0-7.67-2.854-8.896-6.66H87.545z
		 M72.903,36.06h8.277c0.385-1.965,1.044-3.856,1.998-5.667c1.115-3.425,3.024-6.391,5.722-8.896
		c5.021-5.013,12.477-8.097,19.572-8.097c7.501,0,14.157,3.131,19.573,8.097c4.175,3.828,6.521,9.09,7.533,14.563h8.366
		c-0.229-1.655-0.582-3.32-1.068-4.997c-4.951-17.029-21.68-28.162-39.839-25.452c-7.576,1.131-14.222,4.352-19.612,9.799
		C77.374,21.527,73.853,28.424,72.903,36.06z M73.938,123.083c0-0.198-0.162-0.359-0.361-0.359h-4.854v-1.858h4.3
		c0.2,0,0.361-0.164,0.361-0.361v-2.407c0-0.199-0.161-0.36-0.361-0.36h-4.3v-1.613h4.57c0.199,0,0.36-0.161,0.36-0.361v-2.545
		c0-0.201-0.161-0.363-0.36-0.363h-7.547c-0.199,0-0.361,0.162-0.361,0.363v12.433c0,0.198,0.162,0.36,0.361,0.36h7.831
		c0.199,0,0.361-0.162,0.361-0.36V123.083z M89.271,125.475l-2.736-4.964c1.392-0.631,2.179-1.898,2.179-3.539
		c0-2.578-1.741-4.119-4.657-4.119h-4.28c-0.2,0-0.361,0.162-0.361,0.363v12.433c0,0.198,0.161,0.36,0.361,0.36h2.663
		c0.199,0,0.36-0.162,0.36-0.36v-4.575h0.335l2.326,4.734c0.061,0.123,0.186,0.201,0.324,0.201h3.171
		c0.127,0,0.245-0.067,0.311-0.179C89.331,125.722,89.333,125.585,89.271,125.475z M97.416,116.624c0-0.772,0.758-0.888,1.209-0.888
		c0.609,0,1.326,0.387,1.702,0.919c0.065,0.091,0.167,0.146,0.279,0.151c0.109,0.016,0.218-0.041,0.29-0.125l1.728-2.02
		c0.121-0.143,0.115-0.353-0.017-0.485c-0.99-1.011-2.498-1.636-3.936-1.636c-2.341,0-4.705,1.315-4.705,4.256
		c0,2.479,1.662,3.391,3.147,3.917c1.461,0.524,2.055,0.762,2.055,1.424c0,0.657-0.402,0.989-1.194,0.989
		c-0.754,0-1.65-0.489-2.132-1.165c-0.063-0.088-0.165-0.145-0.274-0.15c-0.107-0.013-0.216,0.039-0.29,0.121l-1.774,2.002
		c-0.12,0.135-0.121,0.338-0.004,0.474c1.019,1.183,2.732,1.917,4.475,1.917c2.318,0,4.657-1.394,4.657-4.506
		c0-2.748-2.242-3.55-3.73-4.079C97.751,117.338,97.416,117.144,97.416,116.624z M119.429,125.521l-4.661-12.433
		c-0.053-0.141-0.187-0.235-0.338-0.235h-2.632c-0.15,0-0.283,0.095-0.337,0.235l-4.709,12.433c-0.042,0.11-0.027,0.234,0.041,0.333
		c0.067,0.097,0.178,0.155,0.296,0.155h2.949c0.155,0,0.292-0.099,0.342-0.245l0.74-2.197h3.833l0.784,2.203
		c0.053,0.143,0.188,0.239,0.341,0.239h3.012c0.118,0,0.229-0.059,0.298-0.155C119.454,125.757,119.469,125.631,119.429,125.521z
		 M133.927,125.475l-2.734-4.964c1.39-0.631,2.177-1.898,2.177-3.539c0-2.578-1.741-4.119-4.657-4.119h-4.28
		c-0.199,0-0.36,0.162-0.36,0.363v12.433c0,0.198,0.161,0.36,0.36,0.36h2.663c0.199,0,0.361-0.162,0.361-0.36v-4.575h0.334
		l2.326,4.734c0.062,0.123,0.187,0.201,0.324,0.201h3.171c0.127,0,0.246-0.067,0.311-0.177
		C133.986,125.722,133.988,125.585,133.927,125.475z M142.437,113.216c0-0.201-0.161-0.363-0.36-0.363h-2.727
		c-0.2,0-0.361,0.162-0.361,0.363v12.433c0,0.198,0.161,0.36,0.361,0.36h2.727c0.199,0,0.36-0.162,0.36-0.36V113.216z
		 M160.858,119.378c0-4.036-2.665-6.857-6.48-6.857c-3.806,0-6.464,2.821-6.464,6.857c0,4.035,2.719,6.963,6.464,6.963
		C158.133,126.341,160.858,123.414,160.858,119.378z M128.523,115.999h-1.083v2.178h0.924c1.604,0,1.604-0.864,1.604-1.149
		C129.969,116.744,129.969,115.999,128.523,115.999z M154.378,115.947c-1.673,0-2.842,1.411-2.842,3.432
		c0,2.062,1.169,3.504,2.842,3.504c1.683,0,2.857-1.442,2.857-3.504C157.235,117.358,156.061,115.947,154.378,115.947z
		 M27.044,47.56l-0.011-0.002l-0.009-0.001L27.044,47.56z M41.096,1.222L41.096,1.222l0.011-0.008L41.096,1.222z"/>
	<path fill="#E01F24" d="M135.677,46.49h8.116c-0.556,3.373-1.577,6.704-3.012,10.002c-3.09,7.1-7.419,13.419-12.338,19.354
		c-5.869,7.082-12.434,13.459-19.571,19.254c-0.189,0.155-0.395,0.292-0.807,0.593c-3.149-2.865-6.339-5.639-9.384-8.563
		c-6.628-6.371-12.624-13.285-17.546-21.074c-3.343-5.292-6.159-10.842-7.514-16.991c-0.192-0.867-0.345-1.723-0.48-2.575h8.316
		c1.06,5.309,3.387,10.382,7.442,14.101c5.417,4.965,12.073,8.096,19.572,8.096c7.097,0,14.554-3.082,19.573-8.096
		c2.698-2.504,4.606-5.469,5.721-8.898C134.646,50.026,135.279,48.291,135.677,46.49z M83.179,30.392
		c1.115-3.425,3.024-6.391,5.722-8.896c5.021-5.013,12.477-8.097,19.572-8.097c7.501,0,14.157,3.131,19.573,8.097
		c4.175,3.828,6.521,9.09,7.533,14.563h8.366c-0.229-1.655-0.582-3.32-1.068-4.997c-4.951-17.029-21.68-28.162-39.839-25.452
		c-7.576,1.131-14.222,4.352-19.612,9.799c-6.052,6.116-9.573,13.013-10.522,20.649h8.277
		C81.565,34.094,82.225,32.204,83.179,30.392z M104.198,20.866c-8.434,1.528-15.293,8.753-16.594,17.144h11.727
		c1.34-3.549,5.039-6.167,8.864-6.167c4.1,0,7.361,2.614,8.715,6.167h12.084c-0.723-4.319-2.568-8.131-5.732-11.271
		C117.958,21.475,111.549,19.536,104.198,20.866z"/>
	<path fill="#FCFCFB" d="M108.338,47.002c3.032,0.006,5.488-2.433,5.493-5.446c0.005-3.016-2.451-5.484-5.465-5.493
		c-3.01-0.009-5.486,2.454-5.493,5.461C102.866,44.546,105.312,46.998,108.338,47.002z M108.314,38.152
		c1.825-0.025,3.332,1.493,3.346,3.366c0.013,1.882-1.455,3.391-3.303,3.392c-1.826,0.003-3.285-1.459-3.313-3.317
		C105.016,39.719,106.481,38.179,108.314,38.152z M124.602,54.479c-3.351,4.115-7.651,6.667-12.91,7.502
		c-10.926,1.736-21.152-5.063-23.748-15.757c-0.184-0.753-0.295-1.523-0.398-2.293H99.3c1.226,3.806,4.606,6.66,8.896,6.66
		c4,0,7.862-2.862,9.033-6.66h11.83C128.599,47.872,127.112,51.398,124.602,54.479z M62.526,5.406V95.25
		c0,0.198-0.162,0.359-0.361,0.359H42.921c-0.2,0-0.361-0.161-0.361-0.359V30.047L28.035,42.48
		c-0.079,0.067-0.182,0.098-0.286,0.083c-0.102-0.015-0.193-0.072-0.251-0.159l-9.966-15.101c-0.102-0.154-0.07-0.361,0.073-0.478
		l26.69-21.699c0.064-0.051,0.146-0.08,0.229-0.08h17.641C62.364,5.046,62.526,5.207,62.526,5.406z M44.169,113.216v12.433
		c0,0.198-0.161,0.36-0.361,0.36H41.08c-0.199,0-0.361-0.162-0.361-0.36v-12.433c0-0.201,0.162-0.363,0.361-0.363h2.728
		C44.008,112.853,44.169,113.015,44.169,113.216z M154.378,112.521c-3.806,0-6.464,2.821-6.464,6.857
		c0,4.035,2.719,6.963,6.464,6.963c3.755,0,6.48-2.928,6.48-6.963C160.858,115.342,158.193,112.521,154.378,112.521z
		 M154.378,122.882c-1.673,0-2.842-1.442-2.842-3.504c0-2.021,1.169-3.432,2.842-3.432c1.683,0,2.857,1.411,2.857,3.432
		C157.235,121.44,156.061,122.882,154.378,122.882z M14.485,113.088c-0.054-0.141-0.188-0.235-0.339-0.235h-2.63
		c-0.151,0-0.285,0.095-0.339,0.235L6.47,125.521c-0.043,0.11-0.027,0.234,0.041,0.333c0.066,0.097,0.178,0.155,0.296,0.155h2.948
		c0.156,0,0.294-0.099,0.343-0.245l0.742-2.197h3.83l0.786,2.203c0.052,0.143,0.188,0.239,0.341,0.239h3.011
		c0.119,0,0.229-0.059,0.298-0.155c0.067-0.097,0.083-0.223,0.041-0.333L14.485,113.088z M11.858,120.442l0.921-2.758l0.901,2.758
		H11.858z M60.715,113.006c0.067,0.095,0.086,0.218,0.046,0.327l-4.326,12.433c-0.051,0.146-0.188,0.243-0.341,0.243h-2.712
		c-0.155,0-0.291-0.099-0.342-0.245l-4.248-12.433c-0.039-0.109-0.02-0.233,0.049-0.327c0.066-0.095,0.176-0.151,0.292-0.151h3.044
		c0.161,0,0.302,0.107,0.347,0.261l2.284,7.744l2.271-7.744c0.045-0.153,0.187-0.261,0.346-0.261h2.997
		C60.537,112.853,60.647,112.91,60.715,113.006z M34.721,113.216v12.433c0,0.198-0.162,0.36-0.361,0.36h-3.076
		c-0.131,0-0.251-0.071-0.315-0.187l-3.879-6.979l0.055,6.801c0,0.099-0.038,0.191-0.106,0.258
		c-0.066,0.069-0.159,0.107-0.256,0.107H24.15c-0.2,0-0.362-0.162-0.362-0.36v-12.433c0-0.201,0.162-0.363,0.362-0.363h3.091
		c0.132,0,0.252,0.071,0.315,0.187L31.42,120l-0.054-6.782c0-0.097,0.037-0.188,0.104-0.258c0.067-0.067,0.16-0.107,0.257-0.107
		h2.632C34.559,112.853,34.721,113.015,34.721,113.216z M73.938,123.083v2.566c0,0.198-0.162,0.36-0.361,0.36h-7.831
		c-0.199,0-0.361-0.162-0.361-0.36v-12.433c0-0.201,0.162-0.363,0.361-0.363h7.547c0.199,0,0.36,0.162,0.36,0.363v2.545
		c0,0.2-0.161,0.361-0.36,0.361h-4.57v1.613h4.3c0.2,0,0.361,0.161,0.361,0.36v2.407c0,0.197-0.161,0.361-0.361,0.361h-4.3v1.858
		h4.854C73.776,122.723,73.938,122.884,73.938,123.083z M131.192,120.511c1.39-0.631,2.177-1.898,2.177-3.539
		c0-2.578-1.741-4.119-4.657-4.119h-4.28c-0.199,0-0.36,0.162-0.36,0.363v12.433c0,0.198,0.161,0.36,0.36,0.36h2.663
		c0.199,0,0.361-0.162,0.361-0.36v-4.575h0.334l2.326,4.734c0.062,0.123,0.187,0.201,0.324,0.201h3.171
		c0.127,0,0.246-0.067,0.311-0.177c0.064-0.11,0.066-0.247,0.005-0.357L131.192,120.511z M128.364,118.176h-0.924v-2.178h1.083
		c1.445,0,1.445,0.745,1.445,1.028C129.969,117.312,129.969,118.176,128.364,118.176z M114.768,113.088
		c-0.053-0.141-0.187-0.235-0.338-0.235h-2.632c-0.15,0-0.283,0.095-0.337,0.235l-4.709,12.433c-0.042,0.11-0.027,0.234,0.041,0.333
		c0.067,0.097,0.178,0.155,0.296,0.155h2.949c0.155,0,0.292-0.099,0.342-0.245l0.74-2.197h3.833l0.784,2.203
		c0.053,0.143,0.188,0.239,0.341,0.239h3.012c0.118,0,0.229-0.059,0.298-0.155c0.066-0.097,0.081-0.223,0.041-0.333L114.768,113.088
		z M112.141,120.442l0.922-2.758l0.901,2.758H112.141z M97.416,116.624c0,0.521,0.335,0.715,1.485,1.116
		c1.488,0.529,3.73,1.331,3.73,4.079c0,3.112-2.339,4.506-4.657,4.506c-1.742,0-3.456-0.734-4.475-1.917
		c-0.117-0.136-0.116-0.339,0.004-0.474l1.774-2.002c0.074-0.082,0.183-0.134,0.29-0.121c0.109,0.006,0.211,0.063,0.274,0.15
		c0.481,0.676,1.378,1.165,2.132,1.165c0.792,0,1.194-0.332,1.194-0.989c0-0.662-0.594-0.899-2.055-1.424
		c-1.485-0.526-3.147-1.438-3.147-3.917c0-2.94,2.364-4.256,4.705-4.256c1.438,0,2.945,0.625,3.936,1.636
		c0.132,0.133,0.138,0.343,0.017,0.485l-1.728,2.02c-0.072,0.084-0.181,0.141-0.29,0.125c-0.112-0.006-0.214-0.061-0.279-0.151
		c-0.376-0.532-1.093-0.919-1.702-0.919C98.174,115.736,97.416,115.851,97.416,116.624z M142.437,113.216v12.433
		c0,0.198-0.161,0.36-0.36,0.36h-2.727c-0.2,0-0.361-0.162-0.361-0.36v-12.433c0-0.201,0.161-0.363,0.361-0.363h2.727
		C142.275,112.853,142.437,113.015,142.437,113.216z M86.535,120.511c1.392-0.631,2.179-1.898,2.179-3.539
		c0-2.578-1.741-4.119-4.657-4.119h-4.28c-0.2,0-0.361,0.162-0.361,0.363v12.433c0,0.198,0.161,0.36,0.361,0.36h2.663
		c0.199,0,0.36-0.162,0.36-0.36v-4.575h0.335l2.326,4.734c0.061,0.123,0.186,0.201,0.324,0.201h3.171
		c0.127,0,0.245-0.067,0.311-0.179c0.064-0.108,0.066-0.245,0.005-0.355L86.535,120.511z M83.707,118.176h-0.922v-2.178h1.081
		c1.446,0,1.446,0.745,1.446,1.028C85.313,117.312,85.313,118.176,83.707,118.176z"/>
</g>
</svg>
