<?xml version="1.0" encoding="utf-8"?>
<!-- Generator: Adobe Illustrator 16.0.2, SVG Export Plug-In . SVG Version: 6.00 Build 0)  -->
<!DOCTYPE svg PUBLIC "-//W3C//DTD SVG 1.1//EN" "http://www.w3.org/Graphics/SVG/1.1/DTD/svg11.dtd">
<svg version="1.1" id="Layer_1" xmlns="http://www.w3.org/2000/svg" xmlns:xlink="http://www.w3.org/1999/xlink" x="0px" y="0px"
	 width="150px" height="150px" viewBox="0 0 150 150" enable-background="new 0 0 150 150" xml:space="preserve">
<path fill="#EBE4E9" d="M150,75.458C150,33.784,116.421,0,75,0C33.579,0,0,33.784,0,75.458c0,37.664,27.427,68.88,63.281,74.542
	V97.271H44.238V75.458h19.043V58.834c0-18.912,11.197-29.358,28.328-29.358c8.206,0,16.789,1.474,16.789,1.474v18.57h-9.457
	c-9.316,0-12.223,5.816-12.223,11.784v14.155h20.801l-3.326,21.812H86.719V150C122.574,144.339,150,113.122,150,75.458z"/>
</svg>
