<?xml version="1.0" encoding="utf-8"?>
<!-- Generator: Adobe Illustrator 16.0.2, SVG Export Plug-In . SVG Version: 6.00 Build 0)  -->
<!DOCTYPE svg PUBLIC "-//W3C//DTD SVG 1.1//EN" "http://www.w3.org/Graphics/SVG/1.1/DTD/svg11.dtd">
<svg version="1.1" id="Layer_1" xmlns="http://www.w3.org/2000/svg" xmlns:xlink="http://www.w3.org/1999/xlink" x="0px" y="0px"
	 width="150px" height="150px" viewBox="0 0 150 150" enable-background="new 0 0 150 150" xml:space="preserve">
<path fill="#EBE4E9" d="M76.663,35.937c-20.641,0-37.425,16.785-37.435,37.417c-0.003,7.069,1.974,13.956,5.72,19.914l0.889,1.412
	l-3.779,13.811l14.162-3.717l1.365,0.811c5.747,3.408,12.332,5.217,19.042,5.217h0.018c20.623,0,37.407-16.787,37.416-37.417
	c0.006-10-3.883-19.401-10.949-26.474C96.052,39.838,86.656,35.94,76.663,35.937z M98.671,89.438
	c-0.935,2.628-5.431,5.025-7.59,5.351c-1.94,0.29-4.389,0.412-7.084-0.443c-1.636-0.521-3.731-1.21-6.411-2.37
	c-11.285-4.873-18.655-16.233-19.218-16.983c-0.563-0.752-4.593-6.101-4.593-11.638s2.906-8.257,3.935-9.384
	c1.03-1.127,2.251-1.407,3-1.407c0.75,0,1.502,0.006,2.157,0.04c0.691,0.037,1.617-0.262,2.531,1.931
	c0.938,2.254,3.186,7.791,3.469,8.354c0.283,0.563,0.469,1.218,0.094,1.971c-0.375,0.749-0.563,1.218-1.124,1.876
	c-0.563,0.658-1.182,1.465-1.687,1.971c-0.563,0.561-1.148,1.169-0.494,2.293c0.658,1.127,2.915,4.812,6.259,7.793
	c4.298,3.832,7.921,5.02,9.046,5.584c1.123,0.563,1.781,0.465,2.439-0.283c0.654-0.75,2.811-3.284,3.563-4.408
	c0.75-1.13,1.499-0.941,2.528-0.566c1.032,0.375,6.561,3.098,7.685,3.658c1.123,0.566,1.873,0.844,2.156,1.316
	C99.615,84.565,99.609,86.813,98.671,89.438z M75,0C33.582,0,0,33.573,0,74.999C0,116.421,33.579,150,75,150
	c41.421,0,75-33.579,75-75.001C150,33.573,116.421,0,75,0z M76.647,118.402h-0.019c-7.535,0-14.938-1.891-21.514-5.479
	l-23.863,6.262l6.387-23.326c-3.938-6.829-6.012-14.574-6.009-22.509c0.009-24.823,20.205-45.016,45.018-45.016
	c12.04,0.003,23.345,4.694,31.843,13.201c8.501,8.51,13.182,19.818,13.176,31.849C121.654,98.207,101.461,118.402,76.647,118.402z"
	/>
</svg>
